<?xml version="1.0" encoding="UTF-8" standalone="no"?>
<!-- Created with Inkscape (http://www.inkscape.org/) -->

<svg
   xmlns:dc="http://purl.org/dc/elements/1.1/"
   xmlns:cc="http://creativecommons.org/ns#"
   xmlns:rdf="http://www.w3.org/1999/02/22-rdf-syntax-ns#"
   xmlns:svg="http://www.w3.org/2000/svg"
   xmlns="http://www.w3.org/2000/svg"
   xmlns:sodipodi="http://sodipodi.sourceforge.net/DTD/sodipodi-0.dtd"
   xmlns:inkscape="http://www.inkscape.org/namespaces/inkscape"
   version="1.1"
   id="svg2"
   xml:space="preserve"
   width="510.66666"
   height="417.33334"
   viewBox="0 0 510.66666 417.33334"
   sodipodi:docname="FRF_PB3_v2.svg"
   inkscape:version="0.92.5 (2060ec1f9f, 2020-04-08)"><metadata
     id="metadata8"><rdf:RDF><cc:Work
         rdf:about=""><dc:format>image/svg+xml</dc:format><dc:type
           rdf:resource="http://purl.org/dc/dcmitype/StillImage" /><dc:title></dc:title></cc:Work></rdf:RDF></metadata><defs
     id="defs6" /><sodipodi:namedview
     pagecolor="#ffffff"
     bordercolor="#666666"
     borderopacity="1"
     objecttolerance="10"
     gridtolerance="10"
     guidetolerance="10"
     inkscape:pageopacity="0"
     inkscape:pageshadow="2"
     inkscape:window-width="3200"
     inkscape:window-height="1721"
     id="namedview4"
     showgrid="false"
     inkscape:zoom="2.2619808"
     inkscape:cx="358.09373"
     inkscape:cy="177.66886"
     inkscape:window-x="-9"
     inkscape:window-y="-9"
     inkscape:window-maximized="1"
     inkscape:current-layer="g12" /><g
     id="g10"
     inkscape:groupmode="layer"
     inkscape:label="ink_ext_XXXXXX"
     transform="matrix(1.3333333,0,0,-1.3333333,0,417.33333)"><g
       id="g12"
       transform="scale(0.1)"><path
         d="M 0,0 H 4080 V 3130 H 0 Z"
         style="fill:#ffffff;fill-opacity:1;fill-rule:nonzero;stroke:none"
         id="path14"
         inkscape:connector-curvature="0" /><path
         d="M 0,0 H 4080 V 3130 H 0 Z"
         style="fill:#ffffff;fill-opacity:1;fill-rule:nonzero;stroke:none"
         id="path16"
         inkscape:connector-curvature="0" /><path
         d="M 426,532 H 3684 V 2896 H 426 Z"
         style="fill:#ffffff;fill-opacity:1;fill-rule:nonzero;stroke:none"
         id="path18"
         inkscape:connector-curvature="0" /><path
         d="M 426,532 H 3684"
         style="fill:none;stroke:#262626;stroke-width:4.99800014;stroke-linecap:square;stroke-linejoin:round;stroke-miterlimit:10;stroke-dasharray:none;stroke-opacity:1"
         id="path20"
         inkscape:connector-curvature="0" /><path
         d="M 426,2896 H 3684"
         style="fill:none;stroke:#262626;stroke-width:4.99800014;stroke-linecap:square;stroke-linejoin:round;stroke-miterlimit:10;stroke-dasharray:none;stroke-opacity:1"
         id="path22"
         inkscape:connector-curvature="0" /><path
         d="m 891.426,532 v 32.582"
         style="fill:none;stroke:#262626;stroke-width:4.99800014;stroke-linecap:square;stroke-linejoin:round;stroke-miterlimit:10;stroke-dasharray:none;stroke-opacity:1"
         id="path24"
         inkscape:connector-curvature="0" /><path
         d="m 1822.29,532 v 32.582"
         style="fill:none;stroke:#262626;stroke-width:4.99800014;stroke-linecap:square;stroke-linejoin:round;stroke-miterlimit:10;stroke-dasharray:none;stroke-opacity:1"
         id="path26"
         inkscape:connector-curvature="0" /><path
         d="m 2753.14,532 v 32.582"
         style="fill:none;stroke:#262626;stroke-width:4.99800014;stroke-linecap:square;stroke-linejoin:round;stroke-miterlimit:10;stroke-dasharray:none;stroke-opacity:1"
         id="path28"
         inkscape:connector-curvature="0" /><path
         d="m 3684,532 v 32.582"
         style="fill:none;stroke:#262626;stroke-width:4.99800014;stroke-linecap:square;stroke-linejoin:round;stroke-miterlimit:10;stroke-dasharray:none;stroke-opacity:1"
         id="path30"
         inkscape:connector-curvature="0" /><path
         d="m 891.426,2896 v -32.58"
         style="fill:none;stroke:#262626;stroke-width:4.99800014;stroke-linecap:square;stroke-linejoin:round;stroke-miterlimit:10;stroke-dasharray:none;stroke-opacity:1"
         id="path32"
         inkscape:connector-curvature="0" /><path
         d="m 1822.29,2896 v -32.58"
         style="fill:none;stroke:#262626;stroke-width:4.99800014;stroke-linecap:square;stroke-linejoin:round;stroke-miterlimit:10;stroke-dasharray:none;stroke-opacity:1"
         id="path34"
         inkscape:connector-curvature="0" /><path
         d="m 2753.14,2896 v -32.58"
         style="fill:none;stroke:#262626;stroke-width:4.99800014;stroke-linecap:square;stroke-linejoin:round;stroke-miterlimit:10;stroke-dasharray:none;stroke-opacity:1"
         id="path36"
         inkscape:connector-curvature="0" /><path
         d="m 3684,2896 v -32.58"
         style="fill:none;stroke:#262626;stroke-width:4.99800014;stroke-linecap:square;stroke-linejoin:round;stroke-miterlimit:10;stroke-dasharray:none;stroke-opacity:1"
         id="path38"
         inkscape:connector-curvature="0" /><path
         d="m 765.242,312.32 v 6.75 c 16,0 24,2.032 24,6.094 v 100.785 c -6.629,-3.187 -15.004,-4.785 -25.129,-4.785 v 6.75 c 15.688,0 27.535,4.098 35.535,12.285 h 2.715 c 0.442,0 0.864,-0.172 1.266,-0.515 0.41,-0.348 0.613,-0.739 0.613,-1.176 V 325.164 c 0,-4.062 8,-6.094 24,-6.094 v -6.75 h -63"
         style="fill:#262626;fill-opacity:1;fill-rule:nonzero;stroke:none"
         id="path40"
         inkscape:connector-curvature="0" /><path
         d="m 891.43,308.102 c -15.688,0 -26.36,6.453 -32.016,19.363 -5.656,12.902 -8.484,28.262 -8.484,46.074 0,11.121 1.015,21.594 3.047,31.41 2.031,9.813 6.062,18.137 12.089,24.985 6.032,6.843 14.485,10.265 25.364,10.265 8.433,0 15.34,-2.066 20.718,-6.191 5.375,-4.125 9.469,-9.453 12.282,-15.985 2.812,-6.535 4.734,-13.535 5.765,-21 1.032,-7.468 1.547,-15.296 1.547,-23.484 0,-11 -1.015,-21.297 -3.047,-30.891 -2.031,-9.593 -6.015,-17.75 -11.953,-24.464 -5.941,-6.723 -14.379,-10.082 -25.312,-10.082 z m 0,4.968 c 7.121,0 12.433,3.657 15.933,10.969 3.5,7.313 5.657,15.406 6.469,24.281 0.816,8.875 1.223,18.313 1.223,28.313 0,9.625 -0.407,18.5 -1.223,26.625 -0.812,8.125 -2.953,15.484 -6.418,22.078 -3.469,6.594 -8.797,9.887 -15.984,9.887 -7.254,0 -12.629,-3.313 -16.129,-9.934 -3.5,-6.625 -5.656,-13.984 -6.469,-22.074 -0.812,-8.098 -1.219,-16.957 -1.219,-26.582 0,-7.121 0.172,-13.844 0.516,-20.16 0.348,-6.313 1.269,-12.825 2.769,-19.539 1.5,-6.723 3.922,-12.379 7.266,-16.969 3.344,-4.598 7.766,-6.895 13.266,-6.895"
         style="fill:#262626;fill-opacity:1;fill-rule:nonzero;stroke:none"
         id="path42"
         inkscape:connector-curvature="0" /><path
         d="m 987.43,308.102 c -15.688,0 -26.36,6.453 -32.016,19.363 -5.656,12.902 -8.484,28.262 -8.484,46.074 0,11.121 1.015,21.594 3.047,31.41 2.031,9.813 6.062,18.137 12.089,24.985 6.032,6.843 14.485,10.265 25.364,10.265 8.433,0 15.34,-2.066 20.72,-6.191 5.37,-4.125 9.47,-9.453 12.28,-15.985 2.81,-6.535 4.73,-13.535 5.77,-21 1.03,-7.468 1.54,-15.296 1.54,-23.484 0,-11 -1.01,-21.297 -3.04,-30.891 -2.04,-9.593 -6.02,-17.75 -11.96,-24.464 -5.94,-6.723 -14.377,-10.082 -25.31,-10.082 z m 0,4.968 c 7.121,0 12.433,3.657 15.93,10.969 3.5,7.313 5.66,15.406 6.47,24.281 0.82,8.875 1.22,18.313 1.22,28.313 0,9.625 -0.4,18.5 -1.22,26.625 -0.81,8.125 -2.95,15.484 -6.42,22.078 -3.465,6.594 -8.793,9.887 -15.98,9.887 -7.25,0 -12.625,-3.313 -16.125,-9.934 -3.5,-6.625 -5.657,-13.984 -6.473,-22.074 -0.812,-8.098 -1.219,-16.957 -1.219,-26.582 0,-7.121 0.172,-13.844 0.516,-20.16 0.348,-6.313 1.269,-12.825 2.769,-19.539 1.5,-6.723 3.922,-12.379 7.266,-16.969 3.344,-4.598 7.766,-6.895 13.266,-6.895"
         style="fill:#262626;fill-opacity:1;fill-rule:nonzero;stroke:none"
         id="path44"
         inkscape:connector-curvature="0" /><path
         d="m 1687.85,312.32 v 5.153 c 0,0.316 0.12,0.66 0.37,1.035 l 29.82,33 c 4.5,4.875 8.15,8.969 10.96,12.281 2.82,3.313 5.6,7.121 8.35,11.434 2.75,4.316 4.92,8.711 6.52,13.175 1.59,4.469 2.38,9.204 2.38,14.204 0,5.25 -0.96,10.265 -2.9,15.046 -1.94,4.782 -4.83,8.61 -8.67,11.485 -3.85,2.879 -8.49,4.316 -13.93,4.316 -5.56,0 -10.56,-1.672 -15,-5.015 -4.43,-3.348 -7.55,-7.672 -9.37,-12.985 0.5,0.121 1.19,0.184 2.06,0.184 2.88,0 5.33,-0.969 7.36,-2.91 2.03,-1.934 3.05,-4.434 3.05,-7.5 0,-2.934 -1.02,-5.418 -3.05,-7.45 -2.03,-2.035 -4.48,-3.05 -7.36,-3.05 -3,0 -5.51,1.05 -7.54,3.144 -2.03,2.094 -3.05,4.543 -3.05,7.356 0,4.816 0.9,9.332 2.72,13.55 1.81,4.219 4.42,7.969 7.83,11.25 3.4,3.282 7.24,5.797 11.53,7.547 4.28,1.75 8.82,2.629 13.64,2.629 7.31,0 14.12,-1.551 20.43,-4.644 6.32,-3.094 11.32,-7.469 15,-13.121 3.69,-5.657 5.54,-12.27 5.54,-19.832 0,-5.563 -1.22,-10.844 -3.66,-15.844 -2.44,-5 -5.56,-9.547 -9.38,-13.641 -3.81,-4.094 -8.68,-8.734 -14.62,-13.918 -5.94,-5.187 -9.84,-8.66 -11.72,-10.41 l -21.75,-20.906 h 18.47 c 9.06,0 16.64,0.078 22.74,0.234 6.09,0.156 9.32,0.391 9.7,0.703 1.5,1.625 3.03,7.532 4.59,17.719 h 5.63 l -5.44,-34.219 h -71.25"
         style="fill:#262626;fill-opacity:1;fill-rule:nonzero;stroke:none"
         id="path46"
         inkscape:connector-curvature="0" /><path
         d="m 1822.29,308.102 c -15.69,0 -26.36,6.453 -32.02,19.363 -5.66,12.902 -8.48,28.262 -8.48,46.074 0,11.121 1.01,21.594 3.04,31.41 2.04,9.813 6.06,18.137 12.09,24.985 6.04,6.843 14.49,10.265 25.37,10.265 8.43,0 15.34,-2.066 20.71,-6.191 5.38,-4.125 9.47,-9.453 12.29,-15.985 2.81,-6.535 4.73,-13.535 5.76,-21 1.03,-7.468 1.55,-15.296 1.55,-23.484 0,-11 -1.02,-21.297 -3.05,-30.891 -2.03,-9.593 -6.01,-17.75 -11.95,-24.464 -5.94,-6.723 -14.38,-10.082 -25.31,-10.082 z m 0,4.968 c 7.12,0 12.43,3.657 15.93,10.969 3.5,7.313 5.66,15.406 6.47,24.281 0.81,8.875 1.22,18.313 1.22,28.313 0,9.625 -0.41,18.5 -1.22,26.625 -0.81,8.125 -2.95,15.484 -6.42,22.078 -3.47,6.594 -8.8,9.887 -15.98,9.887 -7.25,0 -12.63,-3.313 -16.13,-9.934 -3.5,-6.625 -5.66,-13.984 -6.47,-22.074 -0.81,-8.098 -1.22,-16.957 -1.22,-26.582 0,-7.121 0.17,-13.844 0.52,-20.16 0.34,-6.313 1.26,-12.825 2.76,-19.539 1.5,-6.723 3.93,-12.379 7.27,-16.969 3.34,-4.598 7.77,-6.895 13.27,-6.895"
         style="fill:#262626;fill-opacity:1;fill-rule:nonzero;stroke:none"
         id="path48"
         inkscape:connector-curvature="0" /><path
         d="m 1918.29,308.102 c -15.69,0 -26.36,6.453 -32.02,19.363 -5.66,12.902 -8.48,28.262 -8.48,46.074 0,11.121 1.01,21.594 3.04,31.41 2.04,9.813 6.06,18.137 12.1,24.985 6.03,6.843 14.48,10.265 25.36,10.265 8.43,0 15.34,-2.066 20.71,-6.191 5.38,-4.125 9.47,-9.453 12.29,-15.985 2.81,-6.535 4.73,-13.535 5.76,-21 1.03,-7.468 1.55,-15.296 1.55,-23.484 0,-11 -1.02,-21.297 -3.05,-30.891 -2.03,-9.593 -6.01,-17.75 -11.95,-24.464 -5.94,-6.723 -14.38,-10.082 -25.31,-10.082 z m 0,4.968 c 7.12,0 12.43,3.657 15.93,10.969 3.5,7.313 5.66,15.406 6.47,24.281 0.81,8.875 1.22,18.313 1.22,28.313 0,9.625 -0.41,18.5 -1.22,26.625 -0.81,8.125 -2.95,15.484 -6.42,22.078 -3.47,6.594 -8.8,9.887 -15.98,9.887 -7.25,0 -12.63,-3.313 -16.13,-9.934 -3.5,-6.625 -5.66,-13.984 -6.47,-22.074 -0.81,-8.098 -1.22,-16.957 -1.22,-26.582 0,-7.121 0.17,-13.844 0.52,-20.16 0.34,-6.313 1.26,-12.825 2.76,-19.539 1.5,-6.723 3.93,-12.379 7.27,-16.969 3.34,-4.598 7.77,-6.895 13.27,-6.895"
         style="fill:#262626;fill-opacity:1;fill-rule:nonzero;stroke:none"
         id="path50"
         inkscape:connector-curvature="0" /><path
         d="m 2627.43,327.133 c 3,-4.375 7.03,-7.625 12.09,-9.75 5.06,-2.121 10.5,-3.184 16.31,-3.184 7.44,0 12.72,3.172 15.85,9.516 3.12,6.34 4.68,13.543 4.68,21.605 0,3.625 -0.33,7.25 -0.98,10.879 -0.66,3.621 -1.77,6.996 -3.33,10.121 -1.56,3.125 -3.7,5.625 -6.42,7.5 -2.72,1.875 -6.05,2.813 -9.99,2.813 h -12.75 c -1.12,0 -1.68,0.594 -1.68,1.781 v 1.688 c 0,1 0.56,1.5 1.68,1.5 l 10.6,0.847 c 4.5,0 8.23,1.684 11.2,5.059 2.97,3.375 5.14,7.484 6.52,12.328 1.37,4.844 2.06,9.453 2.06,13.828 0,6.125 -1.44,11.156 -4.31,15.094 -2.88,3.937 -7.25,5.906 -13.13,5.906 -4.88,0 -9.53,-0.922 -13.97,-2.766 -4.43,-1.843 -7.97,-4.64 -10.59,-8.39 0.25,0.062 0.47,0.109 0.66,0.14 0.18,0.036 0.4,0.051 0.65,0.051 2.88,0 5.28,-1 7.22,-3 1.94,-2 2.91,-4.41 2.91,-7.226 0,-2.746 -0.97,-5.121 -2.91,-7.121 -1.94,-2 -4.34,-3 -7.22,-3 -2.81,0 -5.22,1 -7.22,3 -2,2 -3,4.375 -3,7.121 0,5.5 1.66,10.285 4.97,14.347 3.31,4.063 7.58,7.141 12.8,9.235 5.22,2.093 10.45,3.144 15.7,3.144 3.88,0 7.97,-0.578 12.28,-1.734 4.31,-1.16 8.22,-2.82 11.72,-4.977 3.5,-2.156 6.36,-4.918 8.58,-8.289 2.22,-3.379 3.33,-7.222 3.33,-11.535 0,-5.375 -1.2,-10.344 -3.61,-14.906 -2.41,-4.563 -5.71,-8.496 -9.89,-11.809 -4.19,-3.316 -8.78,-5.789 -13.78,-7.41 5.56,-1.062 10.84,-3.156 15.84,-6.281 5,-3.125 9.01,-7.125 12.04,-12 3.04,-4.875 4.55,-10.125 4.55,-15.75 0,-7.063 -1.93,-13.453 -5.81,-19.172 -3.88,-5.719 -8.97,-10.188 -15.28,-13.402 -6.32,-3.223 -12.97,-4.832 -19.97,-4.832 -6,0 -12.02,1.14 -18.05,3.421 -6.03,2.282 -10.96,5.704 -14.81,10.266 -3.84,4.563 -5.76,10.031 -5.76,16.41 0,3.184 1.06,5.84 3.18,7.965 2.13,2.125 4.78,3.188 7.97,3.188 2.07,0 3.96,-0.485 5.67,-1.454 1.72,-0.964 3.06,-2.328 4.03,-4.078 0.97,-1.75 1.46,-3.621 1.46,-5.621 0,-3.129 -1.1,-5.754 -3.28,-7.879 -2.19,-2.125 -4.81,-3.187 -7.88,-3.187 h -0.93"
         style="fill:#262626;fill-opacity:1;fill-rule:nonzero;stroke:none"
         id="path52"
         inkscape:connector-curvature="0" /><path
         d="m 2753.14,308.102 c -15.68,0 -26.36,6.453 -32.01,19.363 -5.66,12.902 -8.49,28.262 -8.49,46.074 0,11.121 1.02,21.594 3.05,31.41 2.03,9.813 6.06,18.137 12.09,24.985 6.03,6.843 14.49,10.265 25.36,10.265 8.44,0 15.34,-2.066 20.72,-6.191 5.38,-4.125 9.47,-9.453 12.28,-15.985 2.82,-6.535 4.74,-13.535 5.77,-21 1.03,-7.468 1.55,-15.296 1.55,-23.484 0,-11 -1.02,-21.297 -3.05,-30.891 -2.03,-9.593 -6.02,-17.75 -11.95,-24.464 -5.94,-6.723 -14.38,-10.082 -25.32,-10.082 z m 0,4.968 c 7.13,0 12.44,3.657 15.94,10.969 3.5,7.313 5.65,15.406 6.47,24.281 0.81,8.875 1.22,18.313 1.22,28.313 0,9.625 -0.41,18.5 -1.22,26.625 -0.82,8.125 -2.96,15.484 -6.42,22.078 -3.47,6.594 -8.8,9.887 -15.99,9.887 -7.25,0 -12.62,-3.313 -16.12,-9.934 -3.5,-6.625 -5.66,-13.984 -6.47,-22.074 -0.82,-8.098 -1.22,-16.957 -1.22,-26.582 0,-7.121 0.17,-13.844 0.51,-20.16 0.35,-6.313 1.27,-12.825 2.77,-19.539 1.5,-6.723 3.92,-12.379 7.27,-16.969 3.34,-4.598 7.76,-6.895 13.26,-6.895"
         style="fill:#262626;fill-opacity:1;fill-rule:nonzero;stroke:none"
         id="path54"
         inkscape:connector-curvature="0" /><path
         d="m 2849.14,308.102 c -15.68,0 -26.36,6.453 -32.01,19.363 -5.66,12.902 -8.49,28.262 -8.49,46.074 0,11.121 1.02,21.594 3.05,31.41 2.03,9.813 6.06,18.137 12.09,24.985 6.03,6.843 14.49,10.265 25.36,10.265 8.44,0 15.34,-2.066 20.72,-6.191 5.38,-4.125 9.47,-9.453 12.28,-15.985 2.82,-6.535 4.74,-13.535 5.77,-21 1.03,-7.468 1.55,-15.296 1.55,-23.484 0,-11 -1.02,-21.297 -3.05,-30.891 -2.03,-9.593 -6.02,-17.75 -11.95,-24.464 -5.94,-6.723 -14.38,-10.082 -25.32,-10.082 z m 0,4.968 c 7.13,0 12.44,3.657 15.94,10.969 3.5,7.313 5.65,15.406 6.47,24.281 0.81,8.875 1.22,18.313 1.22,28.313 0,9.625 -0.41,18.5 -1.22,26.625 -0.82,8.125 -2.96,15.484 -6.42,22.078 -3.47,6.594 -8.8,9.887 -15.99,9.887 -7.25,0 -12.62,-3.313 -16.12,-9.934 -3.5,-6.625 -5.66,-13.984 -6.47,-22.074 -0.82,-8.098 -1.22,-16.957 -1.22,-26.582 0,-7.121 0.17,-13.844 0.51,-20.16 0.35,-6.313 1.27,-12.825 2.77,-19.539 1.5,-6.723 3.92,-12.379 7.27,-16.969 3.34,-4.598 7.76,-6.895 13.26,-6.895"
         style="fill:#262626;fill-opacity:1;fill-rule:nonzero;stroke:none"
         id="path56"
         inkscape:connector-curvature="0" /><path
         d="m 3545.35,344.008 v 6.75 l 59.34,88.5 c 0.44,0.625 1.09,0.941 1.96,0.941 h 2.82 c 1.43,0 2.15,-0.722 2.15,-2.16 v -87.281 h 18.85 v -6.75 h -18.85 v -18.844 c 0,-2.625 1.88,-4.297 5.63,-5.016 3.75,-0.718 8.09,-1.078 13.03,-1.078 v -6.75 h -52.88 v 6.75 c 4.94,0 9.29,0.36 13.04,1.078 3.75,0.719 5.62,2.391 5.62,5.016 v 18.844 z m 6.37,6.75 h 45.47 v 67.965 z"
         style="fill:#262626;fill-opacity:1;fill-rule:nonzero;stroke:none"
         id="path58"
         inkscape:connector-curvature="0" /><path
         d="m 3684,308.102 c -15.69,0 -26.36,6.453 -32.02,19.363 -5.65,12.902 -8.48,28.262 -8.48,46.074 0,11.121 1.02,21.594 3.05,31.41 2.03,9.813 6.06,18.137 12.09,24.985 6.03,6.843 14.49,10.265 25.36,10.265 8.44,0 15.34,-2.066 20.72,-6.191 5.37,-4.125 9.47,-9.453 12.28,-15.985 2.81,-6.535 4.73,-13.535 5.77,-21 1.03,-7.468 1.54,-15.296 1.54,-23.484 0,-11 -1.01,-21.297 -3.04,-30.891 -2.04,-9.593 -6.02,-17.75 -11.96,-24.464 -5.93,-6.723 -14.37,-10.082 -25.31,-10.082 z m 0,4.968 c 7.13,0 12.44,3.657 15.94,10.969 3.5,7.313 5.65,15.406 6.46,24.281 0.82,8.875 1.23,18.313 1.23,28.313 0,9.625 -0.41,18.5 -1.23,26.625 -0.81,8.125 -2.95,15.484 -6.42,22.078 -3.46,6.594 -8.79,9.887 -15.98,9.887 -7.25,0 -12.63,-3.313 -16.13,-9.934 -3.5,-6.625 -5.66,-13.984 -6.47,-22.074 -0.81,-8.098 -1.21,-16.957 -1.21,-26.582 0,-7.121 0.17,-13.844 0.51,-20.16 0.35,-6.313 1.27,-12.825 2.77,-19.539 1.5,-6.723 3.92,-12.379 7.26,-16.969 3.35,-4.598 7.77,-6.895 13.27,-6.895"
         style="fill:#262626;fill-opacity:1;fill-rule:nonzero;stroke:none"
         id="path60"
         inkscape:connector-curvature="0" /><path
         d="m 3780,308.102 c -15.69,0 -26.36,6.453 -32.02,19.363 -5.65,12.902 -8.48,28.262 -8.48,46.074 0,11.121 1.02,21.594 3.05,31.41 2.03,9.813 6.06,18.137 12.09,24.985 6.03,6.843 14.49,10.265 25.36,10.265 8.44,0 15.34,-2.066 20.72,-6.191 5.37,-4.125 9.47,-9.453 12.28,-15.985 2.81,-6.535 4.73,-13.535 5.77,-21 1.03,-7.468 1.54,-15.296 1.54,-23.484 0,-11 -1.01,-21.297 -3.04,-30.891 -2.04,-9.593 -6.02,-17.75 -11.96,-24.464 -5.93,-6.723 -14.37,-10.082 -25.31,-10.082 z m 0,4.968 c 7.13,0 12.44,3.657 15.94,10.969 3.5,7.313 5.65,15.406 6.46,24.281 0.82,8.875 1.23,18.313 1.23,28.313 0,9.625 -0.41,18.5 -1.23,26.625 -0.81,8.125 -2.95,15.484 -6.42,22.078 -3.46,6.594 -8.79,9.887 -15.98,9.887 -7.25,0 -12.62,-3.313 -16.12,-9.934 -3.5,-6.625 -5.66,-13.984 -6.48,-22.074 -0.81,-8.098 -1.21,-16.957 -1.21,-26.582 0,-7.121 0.17,-13.844 0.51,-20.16 0.35,-6.313 1.27,-12.825 2.77,-19.539 1.5,-6.723 3.92,-12.379 7.26,-16.969 3.35,-4.598 7.77,-6.895 13.27,-6.895"
         style="fill:#262626;fill-opacity:1;fill-rule:nonzero;stroke:none"
         id="path62"
         inkscape:connector-curvature="0" /><path
         d="m 1370.38,56.0313 v 7.4101 c 14.43,0 21.65,2.2188 21.65,6.6563 V 185.41 c 0,4.438 -7.22,6.653 -21.65,6.653 v 7.406 h 115.78 l 5.81,-48.09 h -6 c -1,8.812 -2.3,15.762 -3.89,20.855 -1.6,5.094 -3.94,9.094 -7.03,12 -3.09,2.907 -7.22,4.942 -12.37,6.094 -5.16,1.156 -12.25,1.735 -21.25,1.735 h -19.21 c -2.5,0 -4.45,-0.094 -5.86,-0.282 -1.41,-0.187 -2.55,-0.781 -3.43,-1.781 -0.87,-1 -1.3,-2.531 -1.3,-4.59 v -54 h 14.8 c 7.2,0 12.46,0.625 15.8,1.871 3.35,1.254 5.66,3.567 6.95,6.938 1.28,3.375 1.91,8.625 1.91,15.75 h 6 V 99.5313 h -6 c 0,7.1877 -0.63,12.4527 -1.91,15.7967 -1.29,3.348 -3.6,5.641 -6.95,6.891 -3.34,1.25 -8.6,1.879 -15.8,1.879 h -14.8 V 70.0977 c 0,-4.4375 8.93,-6.6563 26.8,-6.6563 v -7.4101 h -68.05"
         style="fill:#262626;fill-opacity:1;fill-rule:nonzero;stroke:none"
         id="path64"
         inkscape:connector-curvature="0" /><path
         d="m 1489.61,56.0313 v 7.4101 c 4.81,0 8.75,0.375 11.81,1.1211 3.07,0.7539 4.6,2.5977 4.6,5.5352 v 57.2813 c 0,3.746 -0.56,6.465 -1.69,8.152 -1.13,1.688 -2.75,2.719 -4.87,3.098 -2.13,0.375 -5.41,0.562 -9.85,0.562 v 7.407 l 30,2.25 v -20.535 c 2.31,6.066 5.55,11.003 9.71,14.816 4.15,3.812 9.2,5.719 15.14,5.719 4.18,0 7.92,-1.235 11.2,-3.703 3.28,-2.469 4.92,-5.704 4.92,-9.704 0,-2.562 -0.91,-4.785 -2.72,-6.66 -1.81,-1.875 -4.06,-2.812 -6.75,-2.812 -2.56,0 -4.76,0.922 -6.61,2.765 -1.84,1.844 -2.76,4.079 -2.76,6.707 0,3.75 1.31,6.407 3.93,7.969 h -1.21 c -5.69,0 -10.32,-2.047 -13.88,-6.144 -3.56,-4.09 -6.11,-9.188 -7.64,-15.282 -1.53,-6.093 -2.3,-11.921 -2.3,-17.484 V 70.0977 c 0,-4.4375 6.81,-6.6563 20.44,-6.6563 v -7.4101 h -51.47"
         style="fill:#262626;fill-opacity:1;fill-rule:nonzero;stroke:none"
         id="path66"
         inkscape:connector-curvature="0" /><path
         d="m 1619.21,53.6914 c -8.57,0 -16.41,2.2344 -23.53,6.7031 -7.13,4.4688 -12.74,10.4532 -16.83,17.9532 -4.1,7.5 -6.14,15.4023 -6.14,23.7153 0,8.187 1.87,15.984 5.62,23.39 3.75,7.406 8.96,13.375 15.62,17.91 6.65,4.532 14.07,6.797 22.26,6.797 6.43,0 12.03,-1.078 16.77,-3.234 4.76,-2.156 8.66,-5.141 11.73,-8.957 3.06,-3.813 5.39,-8.328 6.99,-13.543 1.59,-5.219 2.38,-10.926 2.38,-17.113 0,-1.875 -0.72,-2.813 -2.15,-2.813 h -60.85 v -2.25 c 0,-11.625 2.35,-21.6094 7.03,-29.9531 4.69,-8.3438 12.35,-12.5156 22.97,-12.5156 4.25,0 8.21,0.9687 11.87,2.9101 3.65,1.9375 6.84,4.6055 9.55,8.0117 2.72,3.4063 4.55,7.0469 5.48,10.9258 0.13,0.5 0.38,0.9375 0.75,1.3125 0.38,0.3711 0.82,0.5586 1.32,0.5586 h 1.88 c 1.43,0 2.15,-0.875 2.15,-2.6211 -2,-7.9414 -6.28,-14.457 -12.85,-19.5508 -6.55,-5.0898 -13.9,-7.6367 -22.02,-7.6367 z m -27.94,56.0586 h 47.91 c 0,5.25 -0.74,10.578 -2.21,15.984 -1.47,5.407 -3.9,9.907 -7.31,13.5 -3.41,3.594 -7.89,5.395 -13.45,5.395 -7.94,0 -14.08,-3.703 -18.42,-11.113 -4.35,-7.403 -6.52,-15.325 -6.52,-23.766"
         style="fill:#262626;fill-opacity:1;fill-rule:nonzero;stroke:none"
         id="path68"
         inkscape:connector-curvature="0" /><path
         d="m 1723.76,15.3477 v 7.2148 c 4.75,0 8.67,0.4219 11.77,1.2656 3.09,0.8477 4.64,2.7071 4.64,5.5821 v 38.8086 c -3.31,-4.3711 -7.47,-7.8868 -12.47,-10.543 -5,-2.6563 -10.22,-3.9844 -15.66,-3.9844 -6.31,0 -12.17,1.2969 -17.58,3.8867 -5.4,2.5938 -10.1,6.1094 -14.1,10.5508 -4,4.4336 -7.11,9.5742 -9.33,15.418 -2.23,5.8437 -3.33,11.7656 -3.33,17.7661 0,8.378 2.06,16.238 6.19,23.582 4.12,7.343 9.75,13.171 16.87,17.484 7.12,4.312 14.85,6.469 23.16,6.469 5.94,0 11.44,-1.672 16.5,-5.02 5.06,-3.344 9.09,-7.828 12.09,-13.449 l 7.5,18.469 h 5.53 V 29.4102 c 0,-2.875 1.53,-4.7344 4.6,-5.5821 3.06,-0.8437 6.97,-1.2656 11.72,-1.2656 v -7.2148 z m -10.5,43.8711 c 6.25,0 11.81,2.0625 16.69,6.1914 4.87,4.125 8.46,9.3398 10.78,15.6523 V 118 c -1.44,6.688 -4.41,12.484 -8.91,17.395 -4.5,4.902 -9.9,7.355 -16.21,7.355 -4.75,0 -9.02,-1.266 -12.8,-3.797 -3.78,-2.527 -6.92,-5.902 -9.42,-10.125 -2.5,-4.219 -4.36,-8.797 -5.58,-13.73 -1.22,-4.938 -1.83,-9.594 -1.83,-13.969 0,-5.5665 1,-11.6602 3,-18.2813 2,-6.625 5.05,-12.2188 9.14,-16.7852 4.09,-4.5625 9.14,-6.8437 15.14,-6.8437"
         style="fill:#262626;fill-opacity:1;fill-rule:nonzero;stroke:none"
         id="path70"
         inkscape:connector-curvature="0" /><path
         d="m 1794.91,81.0625 v 46.3165 c 0,3.746 -0.56,6.465 -1.68,8.152 -1.12,1.688 -2.75,2.719 -4.87,3.098 -2.13,0.375 -5.41,0.562 -9.85,0.562 v 7.407 l 31.78,2.25 V 81.0625 c 0,-5.5 0.39,-9.7656 1.17,-12.7969 0.78,-3.0312 2.45,-5.2968 5.02,-6.7968 2.56,-1.5 6.66,-2.25 12.28,-2.25 7.5,0 13.47,3.1406 17.9,9.4257 4.45,6.2813 6.66,13.418 6.66,21.418 v 37.3165 c 0,3.746 -0.57,6.465 -1.73,8.152 -1.16,1.688 -2.78,2.719 -4.88,3.098 -2.09,0.375 -5.35,0.562 -9.8,0.562 v 7.407 l 31.7,2.25 V 75.0625 c 0,-3.6875 0.56,-6.3594 1.68,-8.0156 1.12,-1.6563 2.75,-2.6719 4.87,-3.0469 2.13,-0.3711 5.41,-0.5586 9.85,-0.5586 v -7.4101 l -31.03,-2.3399 v 17.7188 c -2.62,-5.2539 -6.27,-9.5196 -10.92,-12.7969 -4.66,-3.2813 -9.77,-4.9219 -15.33,-4.9219 -10.07,0 -18.05,2.1406 -23.95,6.4219 -5.91,4.2773 -8.87,11.2617 -8.87,20.9492"
         style="fill:#262626;fill-opacity:1;fill-rule:nonzero;stroke:none"
         id="path72"
         inkscape:connector-curvature="0" /><path
         d="m 1941.87,53.6914 c -8.56,0 -16.4,2.2344 -23.53,6.7031 -7.12,4.4688 -12.73,10.4532 -16.82,17.9532 -4.1,7.5 -6.15,15.4023 -6.15,23.7153 0,8.187 1.88,15.984 5.63,23.39 3.75,7.406 8.95,13.375 15.61,17.91 6.66,4.532 14.08,6.797 22.26,6.797 6.44,0 12.04,-1.078 16.78,-3.234 4.76,-2.156 8.66,-5.141 11.72,-8.957 3.06,-3.813 5.39,-8.328 6.99,-13.543 1.59,-5.219 2.39,-10.926 2.39,-17.113 0,-1.875 -0.72,-2.813 -2.16,-2.813 h -60.84 v -2.25 c 0,-11.625 2.34,-21.6094 7.03,-29.9531 4.69,-8.3438 12.35,-12.5156 22.97,-12.5156 4.25,0 8.2,0.9687 11.86,2.9101 3.66,1.9375 6.84,4.6055 9.56,8.0117 2.72,3.4063 4.55,7.0469 5.48,10.9258 0.13,0.5 0.38,0.9375 0.75,1.3125 0.38,0.3711 0.82,0.5586 1.32,0.5586 h 1.87 c 1.44,0 2.16,-0.875 2.16,-2.6211 -2,-7.9414 -6.28,-14.457 -12.85,-19.5508 -6.56,-5.0898 -13.9,-7.6367 -22.03,-7.6367 z m -27.94,56.0586 h 47.91 c 0,5.25 -0.73,10.578 -2.2,15.984 -1.47,5.407 -3.91,9.907 -7.31,13.5 -3.41,3.594 -7.9,5.395 -13.46,5.395 -7.94,0 -14.07,-3.703 -18.42,-11.113 -4.34,-7.403 -6.52,-15.325 -6.52,-23.766"
         style="fill:#262626;fill-opacity:1;fill-rule:nonzero;stroke:none"
         id="path74"
         inkscape:connector-curvature="0" /><path
         d="m 1989.71,56.0313 v 7.4101 c 4.75,0 8.67,0.375 11.77,1.1211 3.09,0.7539 4.63,2.5977 4.63,5.5352 v 57.2813 c 0,3.746 -0.56,6.465 -1.68,8.152 -1.13,1.688 -2.75,2.719 -4.88,3.098 -2.12,0.375 -5.41,0.562 -9.84,0.562 v 7.407 l 30.47,2.25 v -20.535 c 2.75,6 6.89,10.921 12.42,14.765 5.53,3.848 11.52,5.77 17.95,5.77 9.75,0 17.07,-2.328 21.94,-6.985 4.88,-4.656 7.31,-11.765 7.31,-21.332 V 70.0977 c 0,-2.9375 1.55,-4.7813 4.65,-5.5352 3.09,-0.7461 7.01,-1.1211 11.76,-1.1211 v -7.4101 h -48.1 v 7.4101 c 4.82,0 8.75,0.375 11.82,1.1211 3.06,0.7539 4.59,2.5977 4.59,5.5352 v 49.7813 c 0,6.875 -0.98,12.516 -2.95,16.918 -1.97,4.41 -6.05,6.613 -12.24,6.613 -8.12,0 -14.79,-3.25 -20.01,-9.75 -5.22,-6.5 -7.83,-13.875 -7.83,-22.129 V 70.0977 c 0,-2.9375 1.53,-4.7813 4.59,-5.5352 3.06,-0.7461 6.97,-1.1211 11.72,-1.1211 v -7.4101 h -48.09"
         style="fill:#262626;fill-opacity:1;fill-rule:nonzero;stroke:none"
         id="path76"
         inkscape:connector-curvature="0" /><path
         d="m 2153.07,53.6914 c -8.5,0 -16.2,2.2031 -23.11,6.6055 -6.9,4.4101 -12.34,10.2851 -16.31,17.6289 -3.97,7.3437 -5.95,15.1406 -5.95,23.3872 0,8.312 1.97,16.265 5.91,23.863 3.93,7.594 9.37,13.652 16.31,18.187 6.94,4.532 14.65,6.797 23.15,6.797 8.19,0 15.66,-1.609 22.41,-4.832 6.75,-3.219 10.13,-8.484 10.13,-15.797 0,-2.746 -0.99,-5.121 -2.96,-7.121 -1.97,-2 -4.36,-3 -7.17,-3 -2.75,0 -5.11,1 -7.08,3 -1.97,2 -2.95,4.375 -2.95,7.121 0,2.5 0.78,4.657 2.35,6.469 1.56,1.813 3.52,2.938 5.9,3.379 -4.88,3.059 -11.69,4.59 -20.44,4.59 -6.69,0 -12.08,-2.219 -16.17,-6.656 -4.09,-4.434 -6.97,-9.934 -8.63,-16.5 -1.65,-6.563 -2.48,-13.063 -2.48,-19.5 0,-6.7466 1.02,-13.2778 3.05,-19.5942 2.03,-6.3125 5.28,-11.5469 9.75,-15.7032 4.47,-4.1562 10.08,-6.2343 16.83,-6.2343 6.62,0 12.27,2.0468 16.92,6.1445 4.66,4.0937 7.83,9.4219 9.52,15.9844 0,0.8125 0.56,1.2187 1.68,1.2187 h 2.53 c 0.44,0 0.83,-0.1875 1.17,-0.5664 0.35,-0.375 0.52,-0.8125 0.52,-1.3125 v -0.5586 c -2.13,-8.3164 -6.33,-14.8945 -12.61,-19.7383 -6.28,-4.8398 -13.7,-7.2617 -22.27,-7.2617"
         style="fill:#262626;fill-opacity:1;fill-rule:nonzero;stroke:none"
         id="path78"
         inkscape:connector-curvature="0" /><path
         d="m 2209.06,21.5313 c 2.69,-2.0586 5.63,-3.0899 8.82,-3.0899 8.81,0 16.03,6.6563 21.65,19.9688 l 7.22,17.6211 -31.5,77.1597 c -1.31,2.559 -3.3,4.2 -5.95,4.922 -2.66,0.719 -6.21,1.078 -10.64,1.078 v 7.407 h 44.06 v -7.407 c -7.75,0 -11.63,-1.687 -11.63,-5.062 0,-0.5 0.1,-0.906 0.29,-1.219 l 23.34,-57.3787 21,51.6597 c 0.44,1.125 0.66,2.309 0.66,3.559 0,1.75 -0.47,3.25 -1.41,4.5 -0.93,1.25 -2.14,2.223 -3.61,2.91 -1.47,0.688 -3.11,1.031 -4.92,1.031 v 7.407 h 34.87 v -7.407 c -4.31,0 -8.09,-0.984 -11.34,-2.957 -3.25,-1.968 -5.78,-4.921 -7.59,-8.855 l -36.29,-88.9688 c -1.93,-4.5 -4.18,-8.6563 -6.75,-12.4688 -2.55,-3.8164 -5.68,-6.9258 -9.37,-9.3281 C 2226.29,14.2031 2222.25,13 2217.88,13 c -5.13,0 -9.61,1.6875 -13.45,5.0625 -3.85,3.3789 -5.77,7.5664 -5.77,12.5664 0,2.5586 0.89,4.7305 2.67,6.5156 1.78,1.7813 3.96,2.668 6.51,2.668 1.82,0 3.41,-0.3867 4.79,-1.168 1.37,-0.7851 2.47,-1.8632 3.28,-3.2343 0.81,-1.375 1.22,-2.9688 1.22,-4.7813 0,-2.2539 -0.77,-4.2695 -2.3,-6.0508 -1.53,-1.7773 -3.45,-2.7929 -5.77,-3.0468"
         style="fill:#262626;fill-opacity:1;fill-rule:nonzero;stroke:none"
         id="path80"
         inkscape:connector-curvature="0" /><path
         d="M 2401.34,3.53125 V 213.531 h 28.69 v -8.433 h -20.34 V 11.9688 h 20.34 V 3.53125 h -28.69"
         style="fill:#262626;fill-opacity:1;fill-rule:nonzero;stroke:none"
         id="path82"
         inkscape:connector-curvature="0" /><path
         d="m 2441.63,56.0313 v 7.4101 c 14.44,0 21.66,2.2188 21.66,6.6563 V 185.41 c 0,4.438 -7.22,6.653 -21.66,6.653 v 7.406 h 62.82 v -7.406 c -14.38,0 -21.57,-2.215 -21.57,-6.653 v -51 h 61.88 v 51 c 0,4.438 -7.22,6.653 -21.66,6.653 v 7.406 h 62.81 v -7.406 c -14.37,0 -21.56,-2.215 -21.56,-6.653 V 70.0977 c 0,-4.4375 7.19,-6.6563 21.56,-6.6563 v -7.4101 h -62.81 v 7.4101 c 14.44,0 21.66,2.2188 21.66,6.6563 V 127 h -61.88 V 70.0977 c 0,-4.4375 7.19,-6.6563 21.57,-6.6563 v -7.4101 h -62.82"
         style="fill:#262626;fill-opacity:1;fill-rule:nonzero;stroke:none"
         id="path84"
         inkscape:connector-curvature="0" /><path
         d="m 2601.81,56.0313 c -1.62,0 -2.43,0.7812 -2.43,2.3476 v 1.6836 c 0,0.5 0.21,0.9688 0.65,1.4063 l 58.69,79.5942 h -18.94 c -5.94,0 -10.83,-0.372 -14.67,-1.122 -3.84,-0.75 -7.02,-2.171 -9.52,-4.265 -2.5,-2.098 -4.31,-4.973 -5.43,-8.629 -1.12,-3.656 -1.69,-8.699 -1.69,-15.137 h -6.09 l 2.34,34.688 h 70.41 c 0.56,0 1.08,-0.219 1.54,-0.657 0.47,-0.441 0.71,-1.003 0.71,-1.691 v -1.219 c 0,-0.433 -0.16,-0.933 -0.47,-1.5 l -58.69,-79.4021 h 20.06 c 6.06,0 11.13,0.3711 15.19,1.1211 4.06,0.75 7.53,2.5664 10.41,5.4414 2.68,2.625 4.53,6.2031 5.53,10.7344 1,4.5273 1.75,10.1055 2.25,16.7344 h 6.09 l -3.56,-40.1289 h -72.38"
         style="fill:#262626;fill-opacity:1;fill-rule:nonzero;stroke:none"
         id="path86"
         inkscape:connector-curvature="0" /><path
         d="m 2692.02,3.53125 v 8.43755 h 20.44 V 205.098 h -20.44 v 8.433 h 28.88 V 3.53125 h -28.88"
         style="fill:#262626;fill-opacity:1;fill-rule:nonzero;stroke:none"
         id="path88"
         inkscape:connector-curvature="0" /><path
         d="M 426,532 V 2896"
         style="fill:none;stroke:#262626;stroke-width:4.99800014;stroke-linecap:square;stroke-linejoin:round;stroke-miterlimit:10;stroke-dasharray:none;stroke-opacity:1"
         id="path90"
         inkscape:connector-curvature="0" /><path
         d="M 3684,532 V 2896"
         style="fill:none;stroke:#262626;stroke-width:4.99800014;stroke-linecap:square;stroke-linejoin:round;stroke-miterlimit:10;stroke-dasharray:none;stroke-opacity:1"
         id="path92"
         inkscape:connector-curvature="0" /><path
         d="m 426,532 h 32.578"
         style="fill:none;stroke:#262626;stroke-width:4.99800014;stroke-linecap:square;stroke-linejoin:round;stroke-miterlimit:10;stroke-dasharray:none;stroke-opacity:1"
         id="path94"
         inkscape:connector-curvature="0" /><path
         d="m 426,1320 h 32.578"
         style="fill:none;stroke:#262626;stroke-width:4.99800014;stroke-linecap:square;stroke-linejoin:round;stroke-miterlimit:10;stroke-dasharray:none;stroke-opacity:1"
         id="path96"
         inkscape:connector-curvature="0" /><path
         d="m 426,2108 h 32.578"
         style="fill:none;stroke:#262626;stroke-width:4.99800014;stroke-linecap:square;stroke-linejoin:round;stroke-miterlimit:10;stroke-dasharray:none;stroke-opacity:1"
         id="path98"
         inkscape:connector-curvature="0" /><path
         d="m 426,2896 h 32.578"
         style="fill:none;stroke:#262626;stroke-width:4.99800014;stroke-linecap:square;stroke-linejoin:round;stroke-miterlimit:10;stroke-dasharray:none;stroke-opacity:1"
         id="path100"
         inkscape:connector-curvature="0" /><path
         d="m 3684,532 h -32.58"
         style="fill:none;stroke:#262626;stroke-width:4.99800014;stroke-linecap:square;stroke-linejoin:round;stroke-miterlimit:10;stroke-dasharray:none;stroke-opacity:1"
         id="path102"
         inkscape:connector-curvature="0" /><path
         d="m 3684,1320 h -32.58"
         style="fill:none;stroke:#262626;stroke-width:4.99800014;stroke-linecap:square;stroke-linejoin:round;stroke-miterlimit:10;stroke-dasharray:none;stroke-opacity:1"
         id="path104"
         inkscape:connector-curvature="0" /><path
         d="m 3684,2108 h -32.58"
         style="fill:none;stroke:#262626;stroke-width:4.99800014;stroke-linecap:square;stroke-linejoin:round;stroke-miterlimit:10;stroke-dasharray:none;stroke-opacity:1"
         id="path106"
         inkscape:connector-curvature="0" /><path
         d="m 3684,2896 h -32.58"
         style="fill:none;stroke:#262626;stroke-width:4.99800014;stroke-linecap:square;stroke-linejoin:round;stroke-miterlimit:10;stroke-dasharray:none;stroke-opacity:1"
         id="path108"
         inkscape:connector-curvature="0" /><path
         d="m 319.602,481.703 c -15.692,0 -26.364,6.453 -32.016,19.36 -5.656,12.906 -8.484,28.261 -8.484,46.074 0,11.125 1.015,21.593 3.046,31.41 2.032,9.812 6.063,18.141 12.09,24.984 6.032,6.844 14.485,10.266 25.364,10.266 8.433,0 15.339,-2.063 20.714,-6.192 5.379,-4.125 9.473,-9.453 12.286,-15.984 2.808,-6.531 4.734,-13.531 5.765,-21 1.031,-7.469 1.547,-15.297 1.547,-23.484 0,-11 -1.016,-21.293 -3.047,-30.887 -2.031,-9.598 -6.015,-17.75 -11.953,-24.469 -5.941,-6.718 -14.379,-10.078 -25.312,-10.078 z m 0,4.969 c 7.121,0 12.433,3.652 15.933,10.965 3.5,7.312 5.656,15.406 6.469,24.285 0.812,8.875 1.219,18.312 1.219,28.312 0,9.625 -0.407,18.496 -1.219,26.621 -0.813,8.129 -2.953,15.489 -6.418,22.083 -3.469,6.589 -8.797,9.886 -15.984,9.886 -7.254,0 -12.629,-3.312 -16.129,-9.937 -3.5,-6.621 -5.657,-13.981 -6.469,-22.074 -0.813,-8.094 -1.219,-16.954 -1.219,-26.579 0,-7.125 0.172,-13.843 0.516,-20.16 0.344,-6.312 1.265,-12.824 2.765,-19.543 1.5,-6.718 3.922,-12.375 7.27,-16.968 3.344,-4.594 7.766,-6.891 13.266,-6.891"
         style="fill:#262626;fill-opacity:1;fill-rule:nonzero;stroke:none"
         id="path110"
         inkscape:connector-curvature="0" /><path
         d="m 289.414,1273.92 v 6.75 c 16,0 24,2.03 24,6.1 v 100.78 c -6.629,-3.19 -15.004,-4.78 -25.129,-4.78 v 6.75 c 15.688,0 27.531,4.09 35.531,12.28 h 2.719 c 0.442,0 0.863,-0.17 1.266,-0.52 0.41,-0.34 0.613,-0.73 0.613,-1.17 v -113.34 c 0,-4.07 8,-6.1 24,-6.1 v -6.75 h -63"
         style="fill:#262626;fill-opacity:1;fill-rule:nonzero;stroke:none"
         id="path112"
         inkscape:connector-curvature="0" /><path
         d="m 281.164,2061.92 v 5.15 c 0,0.32 0.125,0.66 0.371,1.04 l 29.817,33 c 4.5,4.87 8.156,8.96 10.964,12.28 2.813,3.31 5.594,7.12 8.348,11.43 2.746,4.32 4.922,8.71 6.516,13.18 1.593,4.47 2.386,9.2 2.386,14.2 0,5.25 -0.964,10.26 -2.902,15.05 -1.941,4.78 -4.832,8.61 -8.676,11.48 -3.843,2.88 -8.484,4.32 -13.922,4.32 -5.562,0 -10.562,-1.67 -15,-5.02 -4.433,-3.34 -7.558,-7.67 -9.371,-12.98 0.5,0.12 1.188,0.18 2.059,0.18 2.875,0 5.332,-0.96 7.363,-2.91 2.031,-1.93 3.047,-4.43 3.047,-7.5 0,-2.93 -1.016,-5.42 -3.047,-7.45 -2.031,-2.03 -4.488,-3.05 -7.363,-3.05 -3,0 -5.516,1.05 -7.543,3.15 -2.031,2.09 -3.047,4.54 -3.047,7.35 0,4.82 0.906,9.34 2.719,13.55 1.812,4.22 4.422,7.97 7.828,11.25 3.406,3.29 7.246,5.8 11.527,7.55 4.285,1.75 8.832,2.63 13.645,2.63 7.312,0 14.125,-1.55 20.433,-4.65 6.313,-3.09 11.313,-7.46 15,-13.12 3.692,-5.65 5.536,-12.26 5.536,-19.83 0,-5.56 -1.219,-10.84 -3.657,-15.84 -2.437,-5 -5.566,-9.55 -9.379,-13.64 -3.808,-4.1 -8.683,-8.74 -14.621,-13.92 -5.937,-5.19 -9.847,-8.66 -11.722,-10.41 l -21.75,-20.91 h 18.472 c 9.063,0 16.641,0.08 22.735,0.24 6.093,0.16 9.328,0.39 9.703,0.7 1.5,1.62 3.027,7.53 4.59,17.72 h 5.629 l -5.438,-34.22 h -71.25"
         style="fill:#262626;fill-opacity:1;fill-rule:nonzero;stroke:none"
         id="path114"
         inkscape:connector-curvature="0" /><path
         d="m 289.883,2864.73 c 3,-4.37 7.027,-7.62 12.09,-9.75 5.062,-2.12 10.5,-3.18 16.312,-3.18 7.442,0 12.723,3.17 15.848,9.51 3.125,6.34 4.683,13.55 4.683,21.61 0,3.62 -0.328,7.25 -0.98,10.88 -0.656,3.62 -1.77,7 -3.332,10.12 -1.559,3.12 -3.699,5.62 -6.418,7.5 -2.723,1.88 -6.051,2.81 -9.984,2.81 h -12.75 c -1.125,0 -1.688,0.6 -1.688,1.79 v 1.68 c 0,1 0.563,1.5 1.688,1.5 l 10.593,0.85 c 4.5,0 8.235,1.68 11.203,5.06 2.969,3.37 5.141,7.48 6.516,12.33 1.371,4.84 2.059,9.45 2.059,13.83 0,6.12 -1.438,11.15 -4.309,15.09 -2.875,3.94 -7.254,5.91 -13.129,5.91 -4.875,0 -9.531,-0.93 -13.969,-2.77 -4.433,-1.84 -7.964,-4.64 -10.593,-8.39 0.25,0.06 0.472,0.11 0.66,0.14 0.187,0.03 0.406,0.05 0.652,0.05 2.875,0 5.281,-1 7.219,-3 1.941,-2 2.91,-4.41 2.91,-7.23 0,-2.75 -0.969,-5.12 -2.91,-7.12 -1.938,-2 -4.344,-3 -7.219,-3 -2.812,0 -5.219,1 -7.219,3 -2,2 -3,4.37 -3,7.12 0,5.5 1.657,10.29 4.969,14.35 3.313,4.06 7.578,7.14 12.801,9.23 5.219,2.1 10.453,3.15 15.699,3.15 3.875,0 7.973,-0.58 12.281,-1.74 4.313,-1.16 8.219,-2.81 11.719,-4.97 3.5,-2.16 6.36,-4.92 8.582,-8.29 2.219,-3.38 3.328,-7.22 3.328,-11.53 0,-5.38 -1.203,-10.35 -3.609,-14.91 -2.41,-4.56 -5.707,-8.5 -9.891,-11.81 -4.187,-3.32 -8.781,-5.79 -13.781,-7.41 5.559,-1.06 10.84,-3.16 15.84,-6.28 5,-3.13 9.016,-7.13 12.047,-12 3.035,-4.88 4.551,-10.13 4.551,-15.75 0,-7.06 -1.942,-13.45 -5.817,-19.17 -3.875,-5.73 -8.969,-10.19 -15.281,-13.41 -6.313,-3.22 -12.969,-4.83 -19.969,-4.83 -6,0 -12.015,1.14 -18.047,3.42 -6.027,2.29 -10.965,5.71 -14.808,10.27 -3.844,4.56 -5.766,10.03 -5.766,16.41 0,3.18 1.063,5.84 3.188,7.97 2.121,2.12 4.777,3.18 7.964,3.18 2.067,0 3.957,-0.48 5.672,-1.45 1.719,-0.97 3.063,-2.33 4.032,-4.08 0.968,-1.75 1.453,-3.62 1.453,-5.62 0,-3.13 -1.094,-5.76 -3.278,-7.88 -2.187,-2.12 -4.812,-3.19 -7.879,-3.19 h -0.933"
         style="fill:#262626;fill-opacity:1;fill-rule:nonzero;stroke:none"
         id="path116"
         inkscape:connector-curvature="0" /><path
         d="M 214.316,1200.93 H 11.8164 c -1.0625,0 -1.95312,0.41 -2.66796,1.22 -0.72266,0.82 -1.08203,1.82 -1.08203,3 0,1 0.35937,1.96 1.08203,2.87 0.71484,0.9 1.60546,1.36 2.66796,1.36 H 214.316 c 1.063,0 1.954,-0.46 2.672,-1.36 0.719,-0.91 1.078,-1.87 1.078,-2.87 0,-1.18 -0.359,-2.18 -1.078,-3 -0.718,-0.81 -1.609,-1.22 -2.672,-1.22"
         style="fill:#262626;fill-opacity:1;fill-rule:nonzero;stroke:none"
         id="path118"
         inkscape:connector-curvature="0" /><path
         d="m 165.566,1244.42 c 0,-1.38 -0.937,-2.07 -2.812,-2.07 -0.313,0.07 -0.891,0.21 -1.734,0.42 -0.844,0.22 -1.532,0.52 -2.063,0.9 -0.535,0.37 -0.801,0.84 -0.801,1.4 0,8.5 -0.465,14.44 -1.402,17.82 -0.625,1.81 -2.5,3.15 -5.621,4.03 L 35.7227,1295.7 c -1.375,0.25 -2.3164,0.37 -2.8164,0.37 -1.5,0 -2.3711,-0.84 -2.6211,-2.53 -0.5,-2.63 -0.75,-7.65 -0.75,-15.09 0,-1.38 -0.9375,-2.06 -2.8125,-2.06 -1.75,0.5 -2.9493,0.88 -3.6055,1.16 -0.6563,0.29 -0.9844,1.06 -0.9844,2.3 v 56.54 c 0,1.43 0.9063,2.15 2.7188,2.15 0.3711,-0.06 0.9648,-0.2 1.7812,-0.42 0.8125,-0.22 1.4961,-0.5 2.0586,-0.85 0.5625,-0.34 0.8438,-0.82 0.8438,-1.45 0,-8.56 0.4687,-14.53 1.4062,-17.9 0.6875,-1.81 2.5938,-3.13 5.7149,-3.94 l 50.5351,-12.66 v 63.1 l -51.4687,12.75 c -1.375,0.31 -2.3164,0.47 -2.8164,0.47 -1.5,0 -2.3711,-0.88 -2.6211,-2.63 -0.5,-2.63 -0.75,-7.63 -0.75,-15 0,-1.44 -0.9375,-2.16 -2.8125,-2.16 -1.75,0.44 -2.9493,0.8 -3.6055,1.08 -0.6563,0.28 -0.9844,1.11 -0.9844,2.49 v 56.53 c 0,1.37 0.9063,2.06 2.7188,2.06 0.3711,-0.13 0.9765,-0.28 1.8203,-0.47 0.8476,-0.19 1.5351,-0.47 2.0664,-0.84 0.5312,-0.38 0.7969,-0.85 0.7969,-1.41 0,-8.56 0.4687,-14.5 1.4062,-17.81 0.625,-1.87 2.5313,-3.22 5.7149,-4.03 l 115.3167,-28.78 c 1.312,-0.31 2.281,-0.47 2.91,-0.47 1.433,0 2.246,0.87 2.433,2.62 0.563,2.63 0.84,7.66 0.84,15.1 0,1.37 0.942,2.06 2.817,2.06 1.625,-0.37 2.797,-0.77 3.515,-1.18 0.719,-0.4 1.078,-1.19 1.078,-2.38 v -56.44 c 0,-1.44 -0.937,-2.16 -2.812,-2.16 -1,0.25 -1.734,0.44 -2.203,0.57 -0.469,0.12 -0.985,0.37 -1.547,0.75 -0.563,0.37 -0.848,0.84 -0.848,1.4 0,8.56 -0.465,14.5 -1.402,17.81 -0.625,1.88 -2.5,3.22 -5.621,4.04 l -56.5314,14.06 v -63 l 57.3714,-14.25 c 1.687,-0.31 2.656,-0.47 2.91,-0.47 1.433,0 2.246,0.84 2.433,2.53 0.563,2.69 0.84,7.75 0.84,15.19 0,1.37 0.942,2.06 2.817,2.06 1.812,-0.5 3.031,-0.91 3.66,-1.22 0.621,-0.31 0.933,-1.09 0.933,-2.34 v -56.53"
         style="fill:#262626;fill-opacity:1;fill-rule:nonzero;stroke:none"
         id="path120"
         inkscape:connector-curvature="0" /><path
         d="m 217.691,1492.45 c -6.191,-7.82 -13.269,-14.55 -21.234,-20.21 -7.969,-5.65 -16.453,-10.26 -25.453,-13.82 -9,-3.56 -18.422,-6.24 -28.266,-8.02 -9.843,-1.78 -19.734,-2.67 -29.672,-2.67 -10.062,0 -20.0152,0.89 -29.859,2.67 -9.8437,1.78 -19.3125,4.5 -28.4062,8.16 -9.0938,3.65 -17.5938,8.31 -25.5,13.96 -7.9063,5.66 -14.8594,12.3 -20.85939,19.93 -0.25,0 -0.375,0.31 -0.375,0.94 v 1.97 c 0,0.43 0.1875,0.82 0.5664,1.16 0.3711,0.35 0.8086,0.52 1.3086,0.52 0.62499,0 1.06249,-0.15 1.31249,-0.47 6.6875,-6.81 13.8594,-12.48 21.5156,-17.01 7.6563,-4.54 15.8125,-8.19 24.4688,-10.97 8.6562,-2.78 17.6094,-4.78 26.8633,-6 9.2461,-1.22 18.9024,-1.83 28.9644,-1.83 44.5,0 78.313,11.88 101.438,35.63 0.375,0.43 0.937,0.65 1.687,0.65 0.375,0 0.782,-0.19 1.215,-0.56 0.442,-0.37 0.66,-0.75 0.66,-1.12 v -1.97 c 0,-0.63 -0.125,-0.94 -0.375,-0.94"
         style="fill:#262626;fill-opacity:1;fill-rule:nonzero;stroke:none"
         id="path122"
         inkscape:connector-curvature="0" /><path
         d="m 167.906,1534.83 c 0,-7.94 -2.906,-13.65 -8.715,-17.15 -5.812,-3.5 -12.906,-5.25 -21.285,-5.25 -5.558,0 -10.98,0.48 -16.258,1.45 -5.285,0.96 -10.644,2.46 -16.082,4.5 -5.437,2.03 -10.5308,4.34 -15.2808,6.93 -4.75,2.6 -9.4063,5.52 -13.9688,8.77 -0.875,0.56 -1.3125,1.38 -1.3125,2.44 0,0.87 0.2813,1.57 0.8477,2.11 0.5586,0.53 1.2148,0.8 1.9648,0.8 0.75,0 1.4375,-0.19 2.0664,-0.57 17.5586,-12.81 33.7462,-19.22 48.5582,-19.22 6.438,0 11.969,1.5 16.594,4.5 4.625,3 6.938,7.54 6.938,13.6 0,5.25 -1.547,10.1 -4.641,14.57 -3.094,4.48 -7.016,8.37 -11.766,11.68 -2.5,0 -6.343,0.42 -11.531,1.26 -5.187,0.85 -9.812,2.18 -13.879,3.99 -4.058,1.81 -6.09,4 -6.09,6.56 0,3.19 1.875,4.78 5.625,4.78 2.188,0 4.938,-0.45 8.25,-1.36 3.309,-0.9 6.407,-1.93 9.282,-3.09 2.875,-1.16 6.125,-2.55 9.75,-4.17 10,1.62 15,6.62 15,15 0,4.87 -1.407,9.75 -4.219,14.62 -2.813,4.88 -6.5,9.19 -11.063,12.94 -4.562,3.75 -9.468,6.7 -14.718,8.86 -5.25,2.16 -10.25,3.23 -15,3.23 -4.188,0 -7.4691,-0.65 -9.8402,-1.97 -2.3789,-1.31 -4.8633,-3.06 -7.4609,-5.25 -2.5899,-2.18 -4.668,-3.28 -6.2305,-3.28 -2.75,0 -5.25,1.16 -7.5,3.47 -2.25,2.31 -3.375,4.81 -3.375,7.5 0,3.38 1.5469,5.78 4.6406,7.22 3.0938,1.44 6.6446,2.16 10.6446,2.16 6.4336,0 14.5434,-1.28 24.3204,-3.85 9.785,-2.56 17.894,-5.47 24.332,-8.72 8.875,-4.56 16.328,-10.23 22.363,-17.01 6.028,-6.78 9.039,-14.42 9.039,-22.92 0,-5.38 -1.621,-9.72 -4.871,-13.03 -3.25,-3.32 -7.656,-5.47 -13.219,-6.47 5.5,-3.88 9.891,-8.32 13.172,-13.32 3.282,-5 4.918,-10.43 4.918,-16.31"
         style="fill:#262626;fill-opacity:1;fill-rule:nonzero;stroke:none"
         id="path124"
         inkscape:connector-curvature="0" /><path
         d="m 218.066,1662.06 c 0,-1.19 -0.625,-1.78 -1.875,-1.78 -0.625,0 -1.062,0.12 -1.308,0.38 -23.379,23.93 -57.317,35.9 -101.817,35.9 -44.4996,0 -78.3121,-11.81 -101.4332,-35.43 -0.3164,-0.57 -0.8828,-0.85 -1.69139,-0.85 -0.5,0 -0.9375,0.18 -1.3086,0.56 -0.3789,0.38 -0.5664,0.79 -0.5664,1.22 v 1.97 c 0,0.43 0.125,0.78 0.375,1.03 7.93749,10.07 17.58199,18.44 28.92579,25.12 11.3437,6.69 23.4492,11.6 36.3242,14.73 12.875,3.12 26,4.68 39.3746,4.68 9.938,0 19.704,-0.84 29.301,-2.53 9.59,-1.69 19.059,-4.36 28.403,-8.02 9.343,-3.65 17.953,-8.28 25.832,-13.88 7.871,-5.59 14.898,-12.29 21.089,-20.1 0.25,-0.25 0.375,-0.6 0.375,-1.03 v -1.97"
         style="fill:#262626;fill-opacity:1;fill-rule:nonzero;stroke:none"
         id="path126"
         inkscape:connector-curvature="0" /><path
         d="M 214.316,1755.63 H 11.8164 c -1.0625,0 -1.95312,0.41 -2.66796,1.22 -0.72266,0.81 -1.08203,1.81 -1.08203,3 0,1 0.35937,1.95 1.08203,2.86 0.71484,0.9 1.60546,1.36 2.66796,1.36 H 214.316 c 1.063,0 1.954,-0.46 2.672,-1.36 0.719,-0.91 1.078,-1.86 1.078,-2.86 0,-1.19 -0.359,-2.19 -1.078,-3 -0.718,-0.81 -1.609,-1.22 -2.672,-1.22"
         style="fill:#262626;fill-opacity:1;fill-rule:nonzero;stroke:none"
         id="path128"
         inkscape:connector-curvature="0" /><path
         d="M 218.066,1849.31 H 8.06641 v 28.68 h 8.43749 v -20.34 H 209.633 v 20.34 h 8.433 v -28.68"
         style="fill:#262626;fill-opacity:1;fill-rule:nonzero;stroke:none"
         id="path130"
         inkscape:connector-curvature="0" /><path
         d="m 79.8828,1920 c -0.6289,0 -1.0664,0.07 -1.3164,0.19 l -44.8125,11.25 c -2.75,0.69 -5.1875,1.03 -7.3125,1.03 -4.3125,0 -6.4687,-1.47 -6.4687,-4.4 0,-3.12 1.875,-5.44 5.6289,-6.94 3.7461,-1.5 8.4648,-2.97 14.1523,-4.41 0.3125,0 0.5469,-0.14 0.7031,-0.42 0.1563,-0.28 0.2344,-0.54 0.2344,-0.8 v -1.78 c 0,-0.31 -0.1719,-0.59 -0.5195,-0.84 -0.3399,-0.25 -0.668,-0.38 -0.9805,-0.38 -4.3125,1.07 -7.9844,2.1 -11.0195,3.1 -3.0274,1 -5.7891,2.56 -8.2891,4.69 -2.5,2.12 -3.75,4.78 -3.75,7.96 0,3.76 1.1836,7.07 3.5586,9.94 2.375,2.88 5.375,4.31 9,4.31 -3.875,3 -6.9375,6.5 -9.1875,10.5 -2.25,4 -3.3711,8.25 -3.3711,12.75 0,4.76 1.1992,8.85 3.6055,12.29 2.4062,3.43 5.8281,5.15 10.2656,5.15 -4.3125,3.06 -7.7031,6.66 -10.1719,10.78 -2.4648,4.13 -3.6992,8.63 -3.6992,13.5 0,5.19 1.4063,9.36 4.2188,12.52 2.8086,3.15 6.8086,4.73 12,4.73 4.0586,0 8.9961,-0.92 14.8125,-2.76 5.8125,-1.85 12.3125,-4.11 19.5,-6.8 3.4375,-1.43 6.4375,-2.16 9,-2.16 3,0 4.5,1.16 4.5,3.47 0,3.94 -2.1094,7.21 -6.3321,9.8 -4.2187,2.6 -8.7031,4.43 -13.4492,5.48 -0.6289,0.32 -0.9414,0.72 -0.9414,1.22 v 1.78 c 0,0.38 0.1406,0.71 0.4258,0.99 0.2773,0.28 0.6055,0.42 0.9844,0.42 0.0586,0 0.1836,-0.06 0.3711,-0.19 5.6875,-1.37 10.9218,-3.74 15.6992,-7.12 4.7851,-3.37 7.1797,-7.62 7.1797,-12.75 0,-3.5 -1.2071,-6.48 -3.6133,-8.95 -2.4063,-2.47 -5.3555,-3.71 -8.8555,-3.71 -1.7539,0 -3.6914,0.41 -5.8164,1.22 -7.5625,2.82 -14.2969,5.16 -20.1992,7.03 -5.9102,1.88 -11.1133,2.81 -15.6133,2.81 -2.75,0 -5.1094,-0.56 -7.082,-1.68 -1.9649,-1.12 -2.9492,-3 -2.9492,-5.63 0,-5.44 1.6718,-10.15 5.0156,-14.15 3.3437,-4 7.7969,-7.47 13.3633,-10.41 0.9336,-0.18 1.6836,-0.34 2.25,-0.47 l 38.5312,-9.66 c 1.3711,-0.37 2.543,-1.15 3.5156,-2.34 0.9688,-1.18 1.4532,-2.5 1.4532,-3.94 0,-1.18 -0.3946,-2.23 -1.1797,-3.13 -0.7774,-0.91 -1.793,-1.37 -3.0391,-1.37 -0.6289,0 -1.0664,0.07 -1.3164,0.19 l -38.25,9.56 c -4.1211,1 -7.5625,1.5 -10.3125,1.5 -2.75,0 -5.1094,-0.56 -7.082,-1.68 -1.9649,-1.13 -2.9492,-3.06 -2.9492,-5.82 0,-3.68 0.8125,-7.06 2.4414,-10.12 1.625,-3.06 3.7617,-5.75 6.4179,-8.06 2.6563,-2.31 5.8282,-4.41 9.5196,-6.29 l 40.7812,-10.21 c 1.3711,-0.31 2.543,-1.06 3.5156,-2.25 0.9688,-1.19 1.4532,-2.54 1.4532,-4.04 0,-1.18 -0.3946,-2.23 -1.1797,-3.13 -0.7774,-0.91 -1.793,-1.37 -3.0391,-1.37"
         style="fill:#262626;fill-opacity:1;fill-rule:nonzero;stroke:none"
         id="path132"
         inkscape:connector-curvature="0" /><path
         d="m 79.8828,2049.81 c -0.6289,0 -1.0664,0.07 -1.3164,0.19 l -44.8125,11.25 c -2.75,0.69 -5.1875,1.04 -7.3125,1.04 -4.3125,0 -6.4687,-1.48 -6.4687,-4.41 0,-3.13 1.875,-5.44 5.6289,-6.94 3.7461,-1.5 8.4648,-2.97 14.1523,-4.4 0.3125,0 0.5469,-0.15 0.7031,-0.43 0.1563,-0.28 0.2344,-0.55 0.2344,-0.8 v -1.77 c 0,-0.32 -0.1719,-0.61 -0.5195,-0.85 -0.3399,-0.26 -0.668,-0.38 -0.9805,-0.38 -4.3125,1.07 -7.9844,2.1 -11.0195,3.1 -3.0274,1 -5.7891,2.56 -8.2891,4.68 -2.5,2.13 -3.75,4.79 -3.75,7.97 0,3.75 1.1836,7.07 3.5586,9.94 2.375,2.88 5.375,4.31 9,4.31 -3.875,3 -6.9375,6.5 -9.1875,10.5 -2.25,4 -3.3711,8.25 -3.3711,12.75 0,4.75 1.1992,8.85 3.6055,12.28 2.4062,3.44 5.8281,5.16 10.2656,5.16 -4.3125,3.06 -7.7031,6.66 -10.1719,10.79 -2.4648,4.12 -3.6992,8.62 -3.6992,13.5 0,5.18 1.4063,9.35 4.2188,12.51 2.8086,3.16 6.8086,4.74 12,4.74 4.0586,0 8.9961,-0.93 14.8125,-2.77 5.8125,-1.85 12.3125,-4.11 19.5,-6.8 3.4375,-1.44 6.4375,-2.16 9,-2.16 3,0 4.5,1.16 4.5,3.48 0,3.93 -2.1094,7.19 -6.3321,9.78 -4.2187,2.6 -8.7031,4.43 -13.4492,5.49 -0.6289,0.32 -0.9414,0.73 -0.9414,1.23 v 1.77 c 0,0.37 0.1406,0.71 0.4258,0.99 0.2773,0.28 0.6055,0.42 0.9844,0.42 0.0586,0 0.1836,-0.06 0.3711,-0.18 5.6875,-1.38 10.9218,-3.76 15.6992,-7.13 4.7851,-3.38 7.1797,-7.63 7.1797,-12.75 0,-3.5 -1.2071,-6.49 -3.6133,-8.96 -2.4063,-2.47 -5.3555,-3.7 -8.8555,-3.7 -1.7539,0 -3.6914,0.41 -5.8164,1.22 -7.5625,2.81 -14.2969,5.16 -20.1992,7.03 -5.9102,1.88 -11.1133,2.81 -15.6133,2.81 -2.75,0 -5.1094,-0.56 -7.082,-1.68 -1.9649,-1.13 -2.9492,-3 -2.9492,-5.63 0,-5.44 1.6718,-10.16 5.0156,-14.16 3.3437,-4 7.7969,-7.46 13.3633,-10.4 0.9336,-0.19 1.6836,-0.35 2.25,-0.47 l 38.5312,-9.66 c 1.3711,-0.37 2.543,-1.15 3.5156,-2.34 0.9688,-1.19 1.4532,-2.5 1.4532,-3.93 0,-1.2 -0.3946,-2.24 -1.1797,-3.15 -0.7774,-0.91 -1.793,-1.35 -3.0391,-1.35 -0.6289,0 -1.0664,0.05 -1.3164,0.18 l -38.25,9.57 c -4.1211,1 -7.5625,1.5 -10.3125,1.5 -2.75,0 -5.1094,-0.57 -7.082,-1.7 -1.9649,-1.12 -2.9492,-3.06 -2.9492,-5.8 0,-3.7 0.8125,-7.07 2.4414,-10.13 1.625,-3.07 3.7617,-5.76 6.4179,-8.07 2.6563,-2.31 5.8282,-4.41 9.5196,-6.28 l 40.7812,-10.22 c 1.3711,-0.31 2.543,-1.06 3.5156,-2.25 0.9688,-1.19 1.4532,-2.53 1.4532,-4.03 0,-1.18 -0.3946,-2.23 -1.1797,-3.14 -0.7774,-0.91 -1.793,-1.36 -3.0391,-1.36"
         style="fill:#262626;fill-opacity:1;fill-rule:nonzero;stroke:none"
         id="path134"
         inkscape:connector-curvature="0" /><path
         d="m 108.543,1908.47 h 8.44922 v 259.609 H 108.543 Z"
         style="fill:#262626;fill-opacity:1;fill-rule:nonzero;stroke:none"
         id="path136"
         inkscape:connector-curvature="0" /><path
         d="m 229.211,1925.43 c 4.621,2.7 6.934,8.1 6.934,16.22 0,3.5 -0.606,6.85 -1.825,10.03 -1.218,3.2 -3.015,5.82 -5.394,7.88 -2.375,2.07 -5.281,3.09 -8.715,3.09 -2.566,0 -4.676,-0.92 -6.332,-2.76 -1.656,-1.85 -2.797,-4.11 -3.418,-6.8 l -1.598,-8.16 c -0.937,-3.68 -2.668,-6.73 -5.203,-9.13 -2.531,-2.41 -5.609,-3.62 -9.234,-3.62 -4.434,0 -8.356,1.21 -11.766,3.62 -3.402,2.4 -6.012,5.59 -7.828,9.56 -1.812,3.97 -2.719,8.08 -2.719,12.32 0,4.5 1.078,8.55 3.235,12.14 2.156,3.6 5.359,5.4 9.613,5.4 2.312,0 4.344,-0.64 6.094,-1.92 1.75,-1.29 2.621,-3.09 2.621,-5.4 0,-1.31 -0.422,-2.43 -1.266,-3.37 -0.844,-0.94 -1.922,-1.41 -3.234,-1.41 -1.188,0 -2.324,0.33 -3.418,0.99 -1.098,0.65 -1.973,1.53 -2.629,2.62 -0.656,1.09 -0.984,2.23 -0.984,3.42 -2.122,-0.87 -3.684,-2.53 -4.684,-4.97 -1,-2.43 -1.5,-5.02 -1.5,-7.78 0,-2.56 0.516,-5.1 1.547,-7.63 1.031,-2.54 2.531,-4.57 4.5,-6.1 1.969,-1.53 4.297,-2.3 6.984,-2.3 1.813,0 3.406,0.63 4.781,1.88 1.372,1.25 2.34,2.81 2.903,4.68 l 1.785,8.72 c 0.621,2.76 1.668,5.3 3.137,7.65 1.472,2.34 3.347,4.18 5.629,5.52 2.277,1.35 4.89,2.02 7.828,2.02 3.683,0 7.34,-1.05 10.968,-3.14 3.625,-2.09 6.5,-4.64 8.622,-7.64 3.625,-5.31 5.437,-11.85 5.437,-19.59 0,-5.31 -1.219,-10.19 -3.656,-14.63 -2.434,-4.44 -6.09,-6.66 -10.965,-6.66 -2.688,0 -5.051,0.8 -7.082,2.39 -2.031,1.6 -3.047,3.74 -3.047,6.43 0,1.63 0.484,2.98 1.457,4.07 0.969,1.1 2.266,1.65 3.887,1.65 2.312,0 4.312,-0.84 6,-2.54 1.691,-1.68 2.535,-3.68 2.535,-6 v -0.75"
         style="fill:#262626;fill-opacity:1;fill-rule:nonzero;stroke:none"
         id="path138"
         inkscape:connector-curvature="0" /><path
         d="m 195.688,1987.05 h -2.903 c -0.187,0 -0.379,0.09 -0.566,0.28 l -18.563,16.78 c -2.75,2.5 -5.058,4.55 -6.937,6.14 -1.875,1.59 -4.016,3.16 -6.418,4.69 -2.41,1.53 -4.879,2.75 -7.41,3.66 -2.532,0.9 -5.203,1.35 -8.016,1.35 -2.937,0 -5.75,-0.54 -8.437,-1.63 -2.688,-1.1 -4.844,-2.73 -6.469,-4.88 -1.621,-2.16 -2.434,-4.77 -2.434,-7.83 0,-3.13 0.934,-5.94 2.805,-8.44 1.879,-2.5 4.316,-4.25 7.316,-5.25 -0.058,0.25 -0.09,0.63 -0.09,1.13 0,1.62 0.547,3 1.637,4.12 1.094,1.13 2.516,1.69 4.266,1.69 1.625,0 3.015,-0.56 4.172,-1.69 1.156,-1.12 1.734,-2.5 1.734,-4.12 0,-1.69 -0.594,-3.11 -1.785,-4.26 -1.184,-1.16 -2.555,-1.74 -4.121,-1.74 -2.75,0 -5.313,0.52 -7.684,1.55 -2.379,1.03 -4.488,2.49 -6.332,4.4 -1.844,1.91 -3.25,4.07 -4.219,6.47 -0.964,2.41 -1.449,4.99 -1.449,7.73 0,4.13 0.856,7.96 2.574,11.49 1.719,3.53 4.172,6.34 7.36,8.44 3.187,2.09 6.906,3.14 11.156,3.14 3.125,0 6.098,-0.69 8.91,-2.07 2.813,-1.37 5.371,-3.14 7.684,-5.29 2.312,-2.16 4.922,-4.91 7.832,-8.25 2.902,-3.35 4.855,-5.55 5.855,-6.61 l 11.813,-12.19 v 10.41 c 0,5.06 -0.047,9.31 -0.145,12.75 -0.09,3.43 -0.23,5.25 -0.418,5.43 -0.937,0.88 -4.25,1.76 -9.937,2.63 v 3.19 l 19.219,-3.1 v -40.12"
         style="fill:#262626;fill-opacity:1;fill-rule:nonzero;stroke:none"
         id="path140"
         inkscape:connector-curvature="0" /><path
         d="m 240.082,2078.06 -95.621,-12 c -2.188,-0.68 -3.285,-4.43 -3.285,-11.25 0,-1 -0.653,-1.5 -1.965,-1.5 -1.066,0.19 -1.879,0.44 -2.438,0.75 -0.562,0.32 -0.847,0.91 -0.847,1.78 v 36.57 c 0,0.56 0.207,0.97 0.613,1.22 0.406,0.25 0.856,0.37 1.356,0.37 2.187,-0.37 3.281,-1.03 3.281,-1.97 0,-7.81 1.347,-11.97 4.035,-12.47 l 78.465,9.85 -73.781,46.22 c -1.622,0.87 -2.934,1.31 -3.934,1.31 -1.754,0 -2.988,-0.78 -3.703,-2.35 -0.719,-1.56 -1.082,-3.4 -1.082,-5.53 0,-1 -0.653,-1.5 -1.965,-1.5 -0.754,0.19 -1.348,0.36 -1.785,0.52 -0.434,0.15 -0.793,0.37 -1.078,0.65 -0.282,0.29 -0.422,0.74 -0.422,1.36 v 28.97 c 0,0.88 0.656,1.32 1.969,1.32 2.187,-0.38 3.281,-1.04 3.281,-1.97 0,-7.5 3.312,-13.37 9.937,-17.63 0.188,-0.19 0.282,-0.34 0.282,-0.47 L 240.082,2085 c 1.063,-0.75 1.594,-1.71 1.594,-2.91 v -2.06 c 0,-1.12 -0.531,-1.78 -1.594,-1.97"
         style="fill:#262626;fill-opacity:1;fill-rule:nonzero;stroke:none"
         id="path142"
         inkscape:connector-curvature="0" /><path
         d="m 218.066,2198.02 h -8.433 v 20.44 H 16.5039 v -20.44 H 8.06641 v 28.88 H 218.066 v -28.88"
         style="fill:#262626;fill-opacity:1;fill-rule:nonzero;stroke:none"
         id="path144"
         inkscape:connector-curvature="0" /><path
         d="m 454.219,2970.65 c 0,1 0.312,1.91 0.933,2.72 l 39.946,39.75 -39.946,39.93 c -0.621,0.63 -0.933,1.48 -0.933,2.54 0,0.94 0.375,1.81 1.129,2.62 0.746,0.82 1.652,1.22 2.715,1.22 0.878,0 1.843,-0.4 2.906,-1.22 l 39.75,-39.75 39.562,39.75 c 1.067,0.82 2.004,1.22 2.817,1.22 1.058,0 1.965,-0.37 2.715,-1.13 0.75,-0.74 1.125,-1.65 1.125,-2.71 0,-1.06 -0.313,-1.91 -0.938,-2.54 L 506.063,3013.12 546,2973.37 c 0.625,-0.81 0.938,-1.72 0.938,-2.72 0,-1.06 -0.375,-1.97 -1.125,-2.72 -0.75,-0.75 -1.657,-1.13 -2.715,-1.13 -0.942,0 -1.879,0.48 -2.817,1.41 l -39.562,39.56 -39.75,-39.56 c -0.938,-0.93 -1.906,-1.41 -2.906,-1.41 -1.063,0 -1.969,0.41 -2.715,1.22 -0.754,0.82 -1.129,1.69 -1.129,2.63"
         style="fill:#262626;fill-opacity:1;fill-rule:nonzero;stroke:none"
         id="path146"
         inkscape:connector-curvature="0" /><path
         d="m 593.148,2965.12 v 6.75 c 16,0 24,2.03 24,6.09 v 100.79 c -6.628,-3.19 -15.003,-4.79 -25.128,-4.79 v 6.75 c 15.687,0 27.531,4.1 35.531,12.29 h 2.719 c 0.441,0 0.863,-0.18 1.265,-0.52 0.41,-0.34 0.613,-0.73 0.613,-1.18 v -113.34 c 0,-4.06 8,-6.09 24,-6.09 v -6.75 h -63"
         style="fill:#262626;fill-opacity:1;fill-rule:nonzero;stroke:none"
         id="path148"
         inkscape:connector-curvature="0" /><path
         d="m 719.336,2960.9 c -15.691,0 -26.363,6.46 -32.02,19.37 -5.656,12.9 -8.48,28.26 -8.48,46.07 0,11.12 1.016,21.59 3.047,31.41 2.031,9.81 6.062,18.14 12.09,24.98 6.031,6.84 14.484,10.27 25.363,10.27 8.434,0 15.34,-2.07 20.715,-6.2 5.379,-4.12 9.472,-9.44 12.285,-15.98 2.809,-6.53 4.73,-13.53 5.766,-21 1.031,-7.46 1.546,-15.29 1.546,-23.48 0,-11 -1.015,-21.3 -3.046,-30.89 -2.036,-9.59 -6.016,-17.75 -11.954,-24.47 -5.941,-6.72 -14.378,-10.08 -25.312,-10.08 z m 0,4.97 c 7.121,0 12.434,3.66 15.934,10.97 3.5,7.31 5.656,15.4 6.468,24.28 0.817,8.88 1.223,18.31 1.223,28.31 0,9.63 -0.406,18.5 -1.223,26.62 -0.812,8.13 -2.953,15.49 -6.422,22.09 -3.464,6.59 -8.793,9.88 -15.98,9.88 -7.25,0 -12.625,-3.31 -16.125,-9.93 -3.5,-6.63 -5.656,-13.98 -6.473,-22.07 -0.812,-8.1 -1.218,-16.96 -1.218,-26.59 0,-7.12 0.171,-13.84 0.515,-20.16 0.344,-6.31 1.266,-12.82 2.766,-19.54 1.5,-6.72 3.922,-12.37 7.265,-16.96 3.344,-4.6 7.77,-6.9 13.27,-6.9"
         style="fill:#262626;fill-opacity:1;fill-rule:nonzero;stroke:none"
         id="path150"
         inkscape:connector-curvature="0" /><path
         d="m 770.988,3056.55 v 4.68 l 40.782,60.85 c 0.312,0.44 0.781,0.65 1.41,0.65 h 1.871 c 1,0 1.5,-0.5 1.5,-1.5 v -60 h 12.937 v -4.68 h -12.937 v -12.94 c 0,-1.82 1.301,-2.96 3.894,-3.42 2.594,-0.47 5.578,-0.71 8.953,-0.71 v -4.68 H 793.02 v 4.68 c 3.441,0 6.441,0.24 9,0.71 2.566,0.46 3.847,1.6 3.847,3.42 v 12.94 z m 4.41,4.68 h 31.219 v 46.69 z"
         style="fill:#262626;fill-opacity:1;fill-rule:nonzero;stroke:none"
         id="path152"
         inkscape:connector-curvature="0" /><path
         d="m 426,532.391 10.184,0.047 10.179,0.21 10.184,0.797 10.176,1.309 10.179,1.391 10.184,1.085 10.184,1.821 10.179,1.906 10.184,1.621 10.18,1.555 10.183,1.515 10.184,1.618 10.175,1.511 10.18,1.125 10.184,0.868 10.179,1.113 10.184,1.203 10.184,1.242 10.179,0.981 10.184,1.105 10.176,0.977 10.179,0.289 10.184,-0.145 10.184,0.09 10.179,0.289 10.184,0.484 10.18,1.207 10.175,1.633 10.184,2.27 10.184,2.949 10.179,2.871 10.184,2.738 10.179,3.063 10.184,2.687 10.184,2.465 10.175,2.106 10.18,2.136 10.184,2.336 10.179,2.473 10.184,2.457 10.184,2.094 10.179,2.055 10.184,1.785 10.18,1.73 10.175,1.738 10.184,1.512 10.184,1.125 10.179,0.735 10.184,0.609 10.18,1.582 10.183,2.734 10.184,3.746 10.175,4.5 10.18,5.789 10.184,6.981 10.179,5.945 10.182,2.317 10.19,-5.575 10.18,-2.121 10.18,1.563 10.17,0.742 10.18,-1.504 10.19,-2.113 10.18,-0.684 10.18,-0.199 10.18,4.898 10.18,9.676 10.18,9.438 10.18,6.5 10.19,-4.688 10.18,-5.535 10.18,-0.117 10.18,0.828 10.18,2.895 10.19,5.027 10.17,5.351 10.18,5.645 10.19,6.445 10.18,8.723 10.18,10.512 10.18,10.734 10.18,9.996 10.19,8.473 10.18,6.914 10.17,6.18 10.19,3.304 10.18,-0.035 10.18,-1.723 10.18,-3.847 10.18,-7.965 10.19,-4.285 10.18,2.539 10.18,7.211 10.18,8.617 10.18,11.199 10.18,8.449 10.18,7.793 10.19,9.477 10.18,7.996 10.18,9.648 10.17,7.637 10.18,11.629 10.19,8.227 10.18,6.781 10.18,12.855 10.18,18.18 10.18,19.074 10.19,17.18 10.17,17.227 10.19,19.437 10.18,14.348 10.18,9.683 10.18,6.008 10.18,2.508 10.19,7.121 10.17,10.621 10.18,7.996 10.19,1.781 10.18,0.793 10.18,-2.609 10.18,-4.332 10.18,-1.477 10.19,5.407 10.18,12.907 10.17,9.79 10.19,4.49 10.18,4.79 10.18,8.75 10.18,11.44 10.18,16.73 10.19,23.42 10.17,35.28 10.19,43.03 10.18,41.31 10.18,37.37 10.18,53.85 10.18,74.05 10.19,81.03 10.18,92.18 10.18,114.98 10.17,126.87 10.18,131.08 10.19,111.88 10.18,57.06 10.18,-30.13 10.18,-112.41 10.18,-153.4 10.19,-149.39 10.17,-134.47 10.19,-117.71 10.18,-98.7 10.18,-82.37 10.18,-66.14 10.18,-56.25 10.19,-49.77 10.17,-41.258 10.18,-35.461 10.19,-30.852 10.18,-29.715 10.18,-25.941 10.18,-22.809 10.18,-19.582 10.19,-16.586 10.18,-14.351 10.17,-12.051 10.19,-10.676 10.18,-9.953 10.18,-9.422 10.18,-8.933 10.18,-8.239 10.19,-7.336 10.17,-7.007 10.19,-6.649 10.18,-6.449 10.18,-6 10.18,-5.637 10.18,-5.5 10.19,-5.3 10.18,-5.133 10.18,-5.043 10.17,-4.817 10.18,-4.754 10.19,-4.527 10.18,-4.531 10.18,-4.375 10.18,-4.32 10.18,-4.18 10.19,-4.149 10.17,-4.086 10.19,-4.101 10.18,-4.063 10.18,-4.039 10.18,-4.011 10.18,-4.028 10.19,-4.062 10.17,-4.063 10.18,-4.09 10.19,-4.105 10.18,-4.156 10.18,-4.153 10.18,-4.097 10.18,-4.297 10.19,-4.207 10.18,-4.246 10.17,-4.25 10.19,-4.067 10.18,-4.074 10.18,-3.738 10.18,-3.332 10.18,-2.489 10.19,-1.164 10.17,0.379 10.19,2.086 10.18,3.516 10.18,4.297 10.18,5.347 10.18,6.036 10.19,6.66 10.18,7.332 10.18,8.094 10.17,8.785 10.18,9.586 10.19,10.074 10.18,11.09 10.18,11.82 10.18,12.062 10.18,12.747 10.19,13.343 10.17,14.309 10.19,15.918 10.18,17.473 10.18,19.043 10.18,21.671 10.18,21.758 10.19,23.844 10.17,28.812 10.18,30.215 10.19,31.16 10.18,32.95 10.18,39.324 10.18,39.993 10.18,51.39 10.19,60.2 10.18,67.3 10.17,85.78 10.19,96.26 10.18,115.88 10.18,145.72 10.18,164.14 10.18,180.33 10.19,210.25 10.17,203.34 10.19,150.21 10.18,44.43 10.18,-49.51 10.18,-141.94 10.18,-173.57 10.19,-157.13 10.18,-142.32 10.18,-127.59 10.17,-108.32 10.18,-83.94 10.19,-74.36 10.18,-67.84 10.18,-47.6 10.18,-51.35 10.18,-44.53 10.19,-39.58 10.17,-30.18 10.19,-29.17 10.18,-22.35 10.18,-22.25 10.18,-19.63 10.18,-20.61 10.19,-17.85 10.18,-12.56 10.17,-16.21 10.19,-12.32 10.18,-10.43 10.18,-13.65 10.18,-11.41 10.18,-7.37 10.19,-9.75 10.17,-9.36 10.18,-9.49 10.19,-8.49 10.18,-8.532 10.18,-8.211 10.18,-6.707 10.18,-9.023 10.19,-8.485 10.17,-5.406 10.19,0.035 10.18,-7.32 10.18,2.359 10.18,1.153 10.18,-1.266 10.19,-0.465 10.18,-5.926 10.18,-6.468 10.17,-5.477 10.18,-6.336 10.19,-10.531 10.18,-5.934 10.18,-10.711 10.18,-10.613 10.18,-10.512 10.19,-14.226 10.17,-12.559 10.19,-11.722 10.18,-7.25 10.18,-7.758 10.18,-8.555 10.18,-3.949 10.19,-7.481 10.18,-8.742 10.17,-11.101 10.19,-7.524 10.18,-7.433 10.18,-8.239"
         style="fill:none;stroke:#3e26a8;stroke-width:19.99799919;stroke-linecap:butt;stroke-linejoin:round;stroke-miterlimit:10;stroke-dasharray:none;stroke-opacity:1"
         id="path154"
         inkscape:connector-curvature="0" /><path
         d="m 426,532.48 10.184,-0.121 10.179,0.047 10.184,1.035 10.176,1.403 10.179,1.484 10.184,1.445 10.184,1.528 10.179,1.644 10.184,1.719 10.18,1.57 10.183,1.391 10.184,1.328 10.175,1.258 10.18,1.125 10.184,0.918 10.179,1.031 10.184,1.399 10.184,1.382 10.179,1.286 10.184,1.386 10.176,1.481 10.179,1.058 10.184,0.743 10.184,1.445 10.179,1.543 10.184,1.457 10.18,1.777 10.175,1.934 10.184,2.129 10.184,2.418 10.179,2.629 10.184,2.543 10.179,2.113 10.184,1.617 10.184,1.32 10.175,1.207 10.18,1.336 10.184,1.332 10.179,1.024 10.184,0.441 10.184,0.403 10.179,1.207 10.184,1.793 10.18,2.71 10.175,3.457 10.184,3.872 10.184,3.75 10.179,3.625 10.184,3.996 10.18,4.179 10.183,3.805 10.184,3.828 10.175,4.02 10.18,4.019 10.184,3.27 10.179,2.133 10.182,3.375 10.19,2 10.18,1.761 10.18,0.871 10.17,-0.359 10.18,-0.707 10.19,-1.496 10.18,-1.785 10.18,-1.766 10.18,2.117 10.18,7.285 10.18,9.418 10.18,7.551 10.19,-0.234 10.18,-3.539 10.18,-1.578 10.18,-1.383 10.18,-1.539 10.19,0.426 10.17,3.828 10.18,6.328 10.19,8.113 10.18,9.883 10.18,10.758 10.18,11.429 10.18,10.704 10.19,9.066 10.18,6.437 10.17,5.622 10.19,5.441 10.18,5.707 10.18,6.332 10.18,3.75 10.18,-2.449 10.19,2.332 10.18,9.699 10.18,8.398 10.18,5.555 10.18,0.524 10.18,0.015 10.18,4.375 10.19,9.11 10.18,9.652 10.18,11.816 10.17,12.09 10.18,16.367 10.19,18.34 10.18,12.586 10.18,13.485 10.18,12.937 10.18,12.137 10.19,15.441 10.17,15.485 10.19,15.761 10.18,14.903 10.18,14.261 10.18,9.382 10.18,0.88 10.19,-3.26 10.17,0.73 10.18,5.18 10.19,9.49 10.18,12.71 10.18,7.41 10.18,-0.28 10.18,-4.31 10.19,0.67 10.18,13.5 10.17,19.54 10.19,15.04 10.18,12.01 10.18,12.98 10.18,15.6 10.18,19.7 10.19,27.66 10.17,40.12 10.19,53.15 10.18,52.85 10.18,48.92 10.18,67.36 10.18,86.77 10.19,92.05 10.18,82.06 10.18,89.54 10.17,78.65 10.18,63.48 10.19,40.45 10.18,15.42 10.18,-20.08 10.18,-55.52 10.18,-91.95 10.19,-105.35 10.17,-103.55 10.19,-98.15 10.18,-90.92 10.18,-79.56 10.18,-65.42 10.18,-59.62 10.19,-56.3 10.17,-49.67 10.18,-42.82 10.19,-38.21 10.18,-36.929 10.18,-32.575 10.18,-28.097 10.18,-24.067 10.19,-20.007 10.18,-17.516 10.17,-15.774 10.19,-13.968 10.18,-12.407 10.18,-11.16 10.18,-9.894 10.18,-9.145 10.19,-8.32 10.17,-7.5 10.19,-7.031 10.18,-6.692 10.18,-6.144 10.18,-5.821 10.18,-5.453 10.19,-5.304 10.18,-5.028 10.18,-4.789 10.17,-4.527 10.18,-4.449 10.19,-4.258 10.18,-4.207 10.18,-4.008 10.18,-3.953 10.18,-3.781 10.19,-3.664 10.17,-3.504 10.19,-3.41 10.18,-3.301 10.18,-3.235 10.18,-3.172 10.18,-3.148 10.19,-3.055 10.17,-3 10.18,-2.898 10.19,-2.899 10.18,-2.875 10.18,-2.824 10.18,-2.851 10.18,-2.848 10.19,-2.941 10.18,-2.985 10.17,-2.902 10.19,-2.887 10.18,-2.867 10.18,-2.887 10.18,-2.937 10.18,-2.922 10.19,-2.984 10.17,-2.934 10.19,-2.992 10.18,-3.051 10.18,-3.094 10.18,-3.156 10.18,-3.203 10.19,-3.277 10.18,-3.391 10.18,-3.574 10.17,-3.61 10.18,-3.687 10.19,-3.738 10.18,-3.762 10.18,-3.875 10.18,-3.883 10.18,-3.863 10.19,-3.789 10.17,-3.641 10.19,-3.383 10.18,-3.074 10.18,-2.512 10.18,-1.254 10.18,0.375 10.19,2.325 10.17,4.156 10.18,5.672 10.19,6.765 10.18,7.606 10.18,8.285 10.18,8.699 10.18,9.055 10.19,9.535 10.18,10.324 10.17,11.309 10.19,12.176 10.18,13.398 10.18,14.902 10.18,16.219 10.18,17.442 10.19,18.734 10.17,20.328 10.19,23.074 10.18,27.012 10.18,30.953 10.18,35.609 10.18,40.801 10.19,46.289 10.18,52.06 10.18,58.37 10.17,66.84 10.18,75.08 10.19,80.99 10.18,85.5 10.18,92.95 10.18,102.34 10.18,105.42 10.19,95.27 10.17,69.91 10.19,32.23 10.18,-9.15 10.18,-44.79 10.18,-67.38 10.18,-75.36 10.19,-74.5 10.18,-70.06 10.17,-64.75 10.19,-56.7 10.18,-48.85 10.18,-41.69 10.18,-36.16 10.18,-31.66 10.19,-28.02 10.17,-24.57 10.18,-21.52 10.19,-19.31 10.18,-17.86 10.18,-17.22 10.18,-16.69 10.18,-15.59 10.19,-13.6 10.17,-11.98 10.19,-10.2 10.18,-9.67 10.18,-8.97 10.18,-8.73 10.18,-8.76 10.19,-10.91 10.18,-11.497 10.18,-7.504 10.17,-7.418 10.18,-8.914 10.19,-10.34 10.18,-11.465 10.18,-11.773 10.18,-11.731 10.18,-12.039 10.19,-13.808 10.17,-15.504 10.19,-16.457 10.18,-16.032 10.18,-14.406 10.18,-11.773 10.18,-9.43 10.19,-8.648 10.18,-9.539 10.17,-10.067 10.19,-10.047 10.18,-10.199 10.18,-9.894"
         style="fill:none;stroke:#2797eb;stroke-width:19.99799919;stroke-linecap:butt;stroke-linejoin:round;stroke-miterlimit:10;stroke-dasharray:none;stroke-opacity:1"
         id="path156"
         inkscape:connector-curvature="0" /><path
         d="m 426,532.461 10.184,-0.215 10.179,0.359 10.184,1.165 10.176,1.367 10.179,1.371 10.184,1.312 10.184,1.457 10.179,1.641 10.184,1.691 10.18,1.559 10.183,1.324 10.184,1.074 10.175,0.961 10.18,1.051 10.184,1.078 10.179,1.117 10.184,1.536 10.184,1.382 10.179,1.266 10.184,1.582 10.176,1.645 10.179,1.171 10.184,0.711 10.184,1.204 10.179,1.367 10.184,1.367 10.18,1.664 10.175,1.848 10.184,1.996 10.184,2.285 10.179,2.676 10.184,2.726 10.179,2.367 10.184,1.954 10.184,1.695 10.175,1.473 10.18,1.5 10.184,1.48 10.179,1.02 10.184,0.253 10.184,0.09 10.179,0.317 10.184,1.027 10.18,2.551 10.175,3.347 10.184,4.075 10.184,4.066 10.179,3.816 10.184,4.176 10.18,4.41 10.183,3.961 10.184,3.942 10.175,4.133 10.18,4.554 10.184,3.793 10.179,2.082 10.182,3.157 10.19,2.429 10.18,2.188 10.18,1.113 10.17,-1.262 10.18,-1.121 10.19,-2.527 10.18,-2.899 10.18,-1.211 10.18,2.051 10.18,7.086 10.18,9.75 10.18,8.547 10.19,0.477 10.18,-3.477 10.18,-1.148 10.18,-1.543 10.18,-0.141 10.19,3.07 10.17,4.801 10.18,6.328 10.19,8.293 10.18,10.219 10.18,11.309 10.18,12.246 10.18,11.394 10.19,9.199 10.18,7.504 10.17,6.481 10.19,6.246 10.18,6.047 10.18,5.203 10.18,3.043 10.18,-5.09 10.19,-0.246 10.18,6.691 10.18,6.371 10.18,4.836 10.18,2.563 10.18,3.746 10.18,7.101 10.19,10.333 10.18,10.093 10.18,11.934 10.17,14.363 10.18,18.57 10.19,20.04 10.18,13.417 10.18,15.004 10.18,15.125 10.18,12.59 10.19,15.625 10.17,15.395 10.19,17.125 10.18,17.901 10.18,15.13 10.18,10.21 10.18,2.67 10.19,-0.62 10.17,3.06 10.18,6.79 10.19,11.68 10.18,16.41 10.18,11.92 10.18,2.33 10.18,-2.75 10.19,3.01 10.18,18.95 10.17,25.34 10.19,17.27 10.18,15.59 10.18,17.97 10.18,21.82 10.18,27.91 10.19,37.98 10.17,55.78 10.19,74.92 10.18,78.71 10.18,59.86 10.18,71.34 10.18,90.77 10.19,93.87 10.18,79.06 10.18,59.27 10.17,27.63 10.18,-4.68 10.19,-40.54 10.18,-73.94 10.18,-100.92 10.18,-107.91 10.18,-100.98 10.19,-85.08 10.17,-77.75 10.19,-72.79 10.18,-67.6 10.18,-56.98 10.18,-46.74 10.18,-42.82 10.19,-40.2 10.17,-36.59 10.18,-33.207 10.19,-31.128 10.18,-29.25 10.18,-25.02 10.18,-21.078 10.18,-17.512 10.19,-14.594 10.18,-12.996 10.17,-12.078 10.19,-11.051 10.18,-9.925 10.18,-9.078 10.18,-8.083 10.18,-7.343 10.19,-6.762 10.17,-6.246 10.19,-5.832 10.18,-5.602 10.18,-5.168 10.18,-4.957 10.18,-4.73 10.19,-4.567 10.18,-4.316 10.18,-4.191 10.17,-3.981 10.18,-3.972 10.19,-3.79 10.18,-3.773 10.18,-3.547 10.18,-3.476 10.18,-3.282 10.19,-3.246 10.17,-3.113 10.19,-3.113 10.18,-3.008 10.18,-2.988 10.18,-2.957 10.18,-2.926 10.19,-2.883 10.17,-2.813 10.18,-2.777 10.19,-2.777 10.18,-2.75 10.18,-2.758 10.18,-2.805 10.18,-2.797 10.19,-2.855 10.18,-2.859 10.17,-2.817 10.19,-2.824 10.18,-2.844 10.18,-2.875 10.18,-2.93 10.18,-2.96 10.19,-3 10.17,-3.067 10.19,-3.125 10.18,-3.176 10.18,-3.214 10.18,-3.266 10.18,-3.281 10.19,-3.356 10.18,-3.496 10.18,-3.578 10.17,-3.617 10.18,-3.664 10.19,-3.672 10.18,-3.672 10.18,-3.637 10.18,-3.492 10.18,-3.203 10.19,-2.727 10.17,-1.992 10.19,-1.164 10.18,-0.066 10.18,1.343 10.18,2.883 10.18,4.278 10.19,5.339 10.17,6.356 10.18,7.226 10.19,7.911 10.18,8.339 10.18,8.735 10.18,8.996 10.18,9.34 10.19,9.883 10.18,10.73 10.17,12.051 10.19,12.961 10.18,14.117 10.18,15.801 10.18,17.496 10.18,19.156 10.19,20.016 10.17,20.23 10.19,22.024 10.18,25.656 10.18,31.301 10.18,37.492 10.18,42.488 10.19,48.25 10.18,50.777 10.18,58.45 10.17,66.28 10.18,76.4 10.19,86.86 10.18,97.99 10.18,106.86 10.18,112.39 10.18,111.17 10.19,100.85 10.17,75.95 10.19,38.26 10.18,-8.01 10.18,-47.89 10.18,-74.87 10.18,-84.31 10.19,-82.88 10.18,-77.2 10.17,-70.93 10.19,-62.23 10.18,-54.03 10.18,-46.71 10.18,-40 10.18,-34.15 10.19,-29.66 10.17,-26.32 10.18,-22.19 10.19,-19.74 10.18,-17.43 10.18,-17.27 10.18,-17.18 10.18,-17.06 10.19,-15.52 10.17,-14.88 10.19,-13 10.18,-11.93 10.18,-11.35 10.18,-11.48 10.18,-11.37 10.19,-11.87 10.18,-11.17 10.18,-7.908 10.17,-7.371 10.18,-9.121 10.19,-10.734 10.18,-12.742 10.18,-13.243 10.18,-12.878 10.18,-12.329 10.19,-13.093 10.17,-14.328 10.19,-15.27 10.18,-14.641 10.18,-12.797 10.18,-9.917 10.18,-7.379 10.19,-6.793 10.18,-8.016 10.17,-9.648 10.19,-10.344 10.18,-9.93 10.18,-8.844"
         style="fill:none;stroke:#81cc59;stroke-width:19.99799919;stroke-linecap:butt;stroke-linejoin:round;stroke-miterlimit:10;stroke-dasharray:none;stroke-opacity:1"
         id="path158"
         inkscape:connector-curvature="0" /><path
         d="m 498.66943,2156.7373 h 851.99997 v 660 H 498.66943 Z"
         style="fill:#ffffff;fill-opacity:1;fill-rule:nonzero;stroke:none"
         id="path160"
         inkscape:connector-curvature="0" /><path
         d="m 860.54943,2654.0773 v 40.59 c 0,0.87 0.53,1.31 1.59,1.31 h 2.06 c 0.38,0 0.7,-0.14 0.99,-0.42 0.28,-0.28 0.42,-0.58 0.42,-0.89 0,-11.38 3.52,-20.2 10.55,-26.49 7.03,-6.28 16.26,-9.42 27.7,-9.42 4.06,0 7.79,1.18 11.2,3.52 3.41,2.34 6.05,5.39 7.92,9.14 1.88,3.75 2.82,7.66 2.82,11.72 0,3.5 -0.7,6.9 -2.11,10.22 -1.41,3.31 -3.44,6.18 -6.09,8.62 -2.66,2.44 -5.68,4.06 -9.05,4.88 l -22.6,5.43 c -7.43,2 -13.53,6.08 -18.27,12.24 -4.76,6.16 -7.13,13.05 -7.13,20.67 0,6 1.53,11.64 4.59,16.92 3.07,5.28 7.19,9.46 12.38,12.52 5.19,3.06 10.78,4.59 16.78,4.59 11.62,0 20.84,-3.94 27.65,-11.81 l 7.23,11.25 c 0.31,0.37 0.68,0.56 1.12,0.56 h 1.22 c 0.31,0 0.62,-0.14 0.93,-0.42 0.32,-0.28 0.48,-0.64 0.48,-1.08 v -40.31 c 0,-1.06 -0.47,-1.59 -1.41,-1.59 h -2.07 c -1.06,0 -1.59,0.53 -1.59,1.59 0,2.94 -0.5,6.16 -1.5,9.66 -1,3.5 -2.37,6.87 -4.13,10.12 -1.74,3.25 -3.65,5.88 -5.71,7.88 -5.56,5.68 -12.97,8.53 -22.22,8.53 -3.94,0 -7.58,-1.02 -10.92,-3.05 -3.35,-2.03 -6.02,-4.77 -8.02,-8.2 -2,-3.44 -3,-7.07 -3,-10.88 0,-5 1.55,-9.52 4.64,-13.55 3.1,-4.03 7.14,-6.7 12.14,-8.01 l 22.59,-5.53 c 3.76,-0.88 7.29,-2.5 10.6,-4.88 3.31,-2.37 6.06,-5.11 8.25,-8.2 2.19,-3.1 3.91,-6.56 5.15,-10.4 1.26,-3.85 1.88,-7.8 1.88,-11.87 0,-6.25 -1.44,-12.17 -4.31,-17.76 -2.88,-5.59 -6.94,-10.09 -12.19,-13.5 -5.25,-3.41 -11,-5.11 -17.25,-5.11 -3.81,0 -7.73,0.42 -11.76,1.26 -4.04,0.85 -7.75,2.16 -11.16,3.94 -3.41,1.78 -6.48,4.05 -9.24,6.8 l -7.31,-11.44 c -0.31,-0.38 -0.75,-0.56 -1.31,-0.56 h -0.94 c -1.06,0 -1.59,0.47 -1.59,1.41"
         style="fill:#000000;fill-opacity:1;fill-rule:nonzero;stroke:none"
         id="path162"
         inkscape:connector-curvature="0" /><path
         d="m 964.51943,2677.4173 v 48 h -14.44 v 4.5 c 7.63,0 13.22,3.54 16.78,10.64 3.56,7.09 5.34,14.77 5.34,23.02 h 4.98 v -32.07 h 24.54997 v -6.09 h -24.54997 v -47.63 c 0,-4.81 0.81,-9.03 2.43,-12.65 1.63,-3.63 4.53,-5.44 8.72,-5.44 4,0 6.88,1.9 8.62,5.72 1.76,3.81 2.63,7.94 2.63,12.37 v 10.22 h 4.96997 v -10.59 c 0,-3.63 -0.66,-7.21 -1.97,-10.74 -1.31,-3.53 -3.27997,-6.43 -5.89997,-8.72 -2.63,-2.27 -5.82,-3.42 -9.57,-3.42 -6.94,0 -12.44,2.08 -16.5,6.24 -4.06,4.16 -6.09,9.7 -6.09,16.64"
         style="fill:#000000;fill-opacity:1;fill-rule:nonzero;stroke:none"
         id="path164"
         inkscape:connector-curvature="0" /><path
         d="m 1057.3094,2654.5373 c -7.06,0 -13.55,1.86 -19.45,5.58 -5.91,3.72 -10.55,8.67 -13.92,14.86 -3.38,6.19 -5.06,12.75 -5.06,19.69 0,6.81 1.52,13.27 4.59,19.36 3.06,6.09 7.36,11.03 12.89,14.81 5.53,3.78 11.7,5.67 18.52,5.67 5.31,0 9.93,-0.89 13.87,-2.67 3.94,-1.78 7.19,-4.26 9.75,-7.45 2.56,-3.19 4.48,-6.92 5.76,-11.21 1.29,-4.28 1.93,-9.01 1.93,-14.2 0,-1.5 -0.6,-2.25 -1.79,-2.25 h -50.34 v -1.87 c 0,-9.63 1.94,-17.9 5.82,-24.8 3.87,-6.91 10.21,-10.36 19.02,-10.36 3.57,0 6.86,0.78 9.9,2.34 3.03,1.57 5.65,3.77 7.87,6.62 2.22,2.84 3.73,5.88 4.55,9.13 0.12,0.38 0.34,0.72 0.66,1.04 0.31,0.31 0.65,0.46 1.02,0.46 h 1.5 c 1.19,0 1.79,-0.75 1.79,-2.25 -1.63,-6.56 -5.16,-11.95 -10.59,-16.17 -5.45,-4.22 -11.54,-6.33 -18.29,-6.33 z m -23.06,46.5 h 39.65 c 0,4.38 -0.6,8.8 -1.82,13.27 -1.22,4.47 -3.25,8.19 -6.1,11.15 -2.84,2.97 -6.54,4.46 -11.1,4.46 -6.57,0 -11.65,-3.08 -15.24,-9.24 -3.59,-6.15 -5.39,-12.7 -5.39,-19.64"
         style="fill:#000000;fill-opacity:1;fill-rule:nonzero;stroke:none"
         id="path166"
         inkscape:connector-curvature="0" /><path
         d="m 1095.2994,2622.7573 v 6.1 c 3.93,0 7.18,0.33 9.75,0.98 2.56,0.66 3.84,2.17 3.84,4.55 v 83.9 c 0,3.19 -1.12,5.18 -3.37,5.96 -2.25,0.78 -5.66,1.17 -10.22,1.17 v 6.09 l 25.78,1.88 v -10.78 c 3.13,3.5 6.8,6.17 11.02,8.01 4.21,1.85 8.73,2.77 13.54,2.77 6.82,0 12.97,-1.86 18.47,-5.58 5.5,-3.72 9.8,-8.6 12.89,-14.63 3.1,-6.03 4.64,-12.39 4.64,-19.07 0,-7.07 -1.72,-13.63 -5.16,-19.69 -3.43,-6.06 -8.1,-10.89 -14.01,-14.49 -5.91,-3.59 -12.42,-5.39 -19.54,-5.39 -8.44,0 -15.57,3.44 -21.38,10.32 v -30.47 c 0,-2.38 1.3,-3.89 3.89,-4.55 2.59,-0.65 5.83,-0.98 9.7,-0.98 v -6.1 z m 26.25,50.63 c 2.06,-4.13 4.91,-7.54 8.53,-10.22 3.63,-2.69 7.59,-4.03 11.9,-4.03 4,0 7.55,1.08 10.65,3.23 3.09,2.16 5.68,5.05 7.78,8.67 2.09,3.63 3.62,7.44 4.59,11.44 0.97,4 1.45,7.88 1.45,11.63 0,4.62 -0.83,9.64 -2.48,15.05 -1.66,5.4 -4.2,9.96 -7.64,13.68 -3.44,3.72 -7.59,5.58 -12.47,5.58 -4.69,0 -9,-1.21 -12.93,-3.61 -3.94,-2.41 -7.07,-5.67 -9.38,-9.8 v -41.62"
         style="fill:#000000;fill-opacity:1;fill-rule:nonzero;stroke:none"
         id="path168"
         inkscape:connector-curvature="0" /><path
         d="m 1278.2994,2652.6673 c -14.19,0 -23.84,5.86 -28.97,17.58 -5.12,11.72 -7.69,25.64 -7.69,41.76 0,10.07 0.91,19.55 2.72,28.45 1.81,8.91 5.45,16.46 10.92,22.65 5.47,6.18 13.14,9.28 23.02,9.28 7.62,0 13.87,-1.86 18.75,-5.58 4.87,-3.72 8.59,-8.55 11.15,-14.48 2.57,-5.94 4.32,-12.29 5.25,-19.04 0.94,-6.75 1.41,-13.84 1.41,-21.28 0,-10 -0.92,-19.34 -2.76,-28.03 -1.85,-8.69 -5.46,-16.08 -10.83,-22.17 -5.38,-6.1 -13.04,-9.14 -22.97,-9.14 z m 0,4.5 c 6.43,0 11.25,3.31 14.43,9.94 3.19,6.62 5.15,13.97 5.87,22.03 0.71,8.06 1.07,16.62 1.07,25.69 0,8.68 -0.36,16.71 -1.07,24.09 -0.72,7.37 -2.66,14.04 -5.82,20.01 -3.15,5.97 -7.98,8.96 -14.48,8.96 -6.57,0 -11.44,-3 -14.63,-9 -3.18,-6 -5.14,-12.67 -5.86,-20.02 -0.71,-7.34 -1.08,-15.36 -1.08,-24.04 0,-6.5 0.16,-12.61 0.47,-18.33 0.31,-5.72 1.14,-11.63 2.49,-17.72 1.34,-6.09 3.53,-11.22 6.56,-15.37 3.03,-4.16 7.05,-6.24 12.05,-6.24"
         style="fill:#000000;fill-opacity:1;fill-rule:nonzero;stroke:none"
         id="path170"
         inkscape:connector-curvature="0" /><path
         d="m 528.63943,2697.9773 h 299.68"
         style="fill:none;stroke:#3e26a8;stroke-width:19.99799919;stroke-linecap:butt;stroke-linejoin:round;stroke-miterlimit:10;stroke-dasharray:none;stroke-opacity:1"
         id="path172"
         inkscape:connector-curvature="0" /><path
         d="m 860.54943,2442.8273 v 40.59 c 0,0.88 0.53,1.32 1.59,1.32 h 2.06 c 0.38,0 0.7,-0.14 0.99,-0.43 0.28,-0.27 0.42,-0.57 0.42,-0.89 0,-11.37 3.52,-20.2 10.55,-26.48 7.03,-6.28 16.26,-9.42 27.7,-9.42 4.06,0 7.79,1.17 11.2,3.51 3.41,2.35 6.05,5.39 7.92,9.14 1.88,3.75 2.82,7.66 2.82,11.73 0,3.5 -0.7,6.9 -2.11,10.22 -1.41,3.31 -3.44,6.18 -6.09,8.62 -2.66,2.44 -5.68,4.06 -9.05,4.88 l -22.6,5.43 c -7.43,2 -13.53,6.08 -18.27,12.23 -4.76,6.16 -7.13,13.05 -7.13,20.67 0,6 1.53,11.65 4.59,16.93 3.07,5.28 7.19,9.45 12.38,12.52 5.19,3.05 10.78,4.59 16.78,4.59 11.62,0 20.84,-3.94 27.65,-11.82 l 7.23,11.25 c 0.31,0.38 0.68,0.57 1.12,0.57 h 1.22 c 0.31,0 0.62,-0.14 0.93,-0.43 0.32,-0.27 0.48,-0.63 0.48,-1.07 v -40.32 c 0,-1.06 -0.47,-1.59 -1.41,-1.59 h -2.07 c -1.06,0 -1.59,0.53 -1.59,1.59 0,2.94 -0.5,6.16 -1.5,9.66 -1,3.5 -2.37,6.87 -4.13,10.12 -1.74,3.25 -3.65,5.88 -5.71,7.88 -5.56,5.69 -12.97,8.54 -22.22,8.54 -3.94,0 -7.58,-1.02 -10.92,-3.06 -3.35,-2.03 -6.02,-4.76 -8.02,-8.19 -2,-3.45 -3,-7.07 -3,-10.88 0,-5 1.55,-9.52 4.64,-13.55 3.1,-4.03 7.14,-6.7 12.14,-8.02 l 22.59,-5.52 c 3.76,-0.88 7.29,-2.51 10.6,-4.88 3.31,-2.38 6.06,-5.11 8.25,-8.21 2.19,-3.09 3.91,-6.56 5.15,-10.4 1.26,-3.84 1.88,-7.79 1.88,-11.86 0,-6.25 -1.44,-12.17 -4.31,-17.77 -2.88,-5.59 -6.94,-10.09 -12.19,-13.5 -5.25,-3.4 -11,-5.11 -17.25,-5.11 -3.81,0 -7.73,0.43 -11.76,1.27 -4.04,0.84 -7.75,2.16 -11.16,3.94 -3.41,1.78 -6.48,4.04 -9.24,6.79 l -7.31,-11.43 c -0.31,-0.38 -0.75,-0.57 -1.31,-0.57 h -0.94 c -1.06,0 -1.59,0.47 -1.59,1.41"
         style="fill:#000000;fill-opacity:1;fill-rule:nonzero;stroke:none"
         id="path174"
         inkscape:connector-curvature="0" /><path
         d="m 964.51943,2466.1673 v 48 h -14.44 v 4.5 c 7.63,0 13.22,3.55 16.78,10.64 3.56,7.1 5.34,14.77 5.34,23.02 h 4.98 v -32.06 h 24.54997 v -6.1 h -24.54997 v -47.62 c 0,-4.81 0.81,-9.03 2.43,-12.65 1.63,-3.63 4.53,-5.45 8.72,-5.45 4,0 6.88,1.91 8.62,5.72 1.76,3.82 2.63,7.95 2.63,12.38 v 10.22 h 4.96997 v -10.6 c 0,-3.62 -0.66,-7.2 -1.97,-10.73 -1.31,-3.53 -3.27997,-6.43 -5.89997,-8.72 -2.63,-2.28 -5.82,-3.42 -9.57,-3.42 -6.94,0 -12.44,2.08 -16.5,6.23 -4.06,4.16 -6.09,9.71 -6.09,16.64"
         style="fill:#000000;fill-opacity:1;fill-rule:nonzero;stroke:none"
         id="path176"
         inkscape:connector-curvature="0" /><path
         d="m 1057.3094,2443.2973 c -7.06,0 -13.55,1.86 -19.45,5.58 -5.91,3.72 -10.55,8.67 -13.92,14.86 -3.38,6.18 -5.06,12.75 -5.06,19.68 0,6.82 1.52,13.27 4.59,19.36 3.06,6.1 7.36,11.03 12.89,14.82 5.53,3.78 11.7,5.67 18.52,5.67 5.31,0 9.93,-0.89 13.87,-2.67 3.94,-1.79 7.19,-4.27 9.75,-7.45 2.56,-3.19 4.48,-6.93 5.76,-11.21 1.29,-4.28 1.93,-9.02 1.93,-14.2 0,-1.5 -0.6,-2.25 -1.79,-2.25 h -50.34 v -1.87 c 0,-9.63 1.94,-17.9 5.82,-24.81 3.87,-6.9 10.21,-10.36 19.02,-10.36 3.57,0 6.86,0.79 9.9,2.35 3.03,1.57 5.65,3.77 7.87,6.61 2.22,2.84 3.73,5.89 4.55,9.14 0.12,0.38 0.34,0.72 0.66,1.03 0.31,0.31 0.65,0.47 1.02,0.47 h 1.5 c 1.19,0 1.79,-0.75 1.79,-2.25 -1.63,-6.56 -5.16,-11.95 -10.59,-16.17 -5.45,-4.22 -11.54,-6.33 -18.29,-6.33 z m -23.06,46.5 h 39.65 c 0,4.38 -0.6,8.8 -1.82,13.26 -1.22,4.47 -3.25,8.19 -6.1,11.16 -2.84,2.97 -6.54,4.45 -11.1,4.45 -6.57,0 -11.65,-3.07 -15.24,-9.23 -3.59,-6.16 -5.39,-12.7 -5.39,-19.64"
         style="fill:#000000;fill-opacity:1;fill-rule:nonzero;stroke:none"
         id="path178"
         inkscape:connector-curvature="0" /><path
         d="m 1095.2994,2411.5173 v 6.1 c 3.93,0 7.18,0.32 9.75,0.98 2.56,0.66 3.84,2.17 3.84,4.55 v 83.9 c 0,3.19 -1.12,5.17 -3.37,5.95 -2.25,0.78 -5.66,1.17 -10.22,1.17 v 6.1 l 25.78,1.88 v -10.78 c 3.13,3.5 6.8,6.17 11.02,8.01 4.21,1.84 8.73,2.77 13.54,2.77 6.82,0 12.97,-1.86 18.47,-5.59 5.5,-3.71 9.8,-8.59 12.89,-14.62 3.1,-6.03 4.64,-12.39 4.64,-19.07 0,-7.07 -1.72,-13.63 -5.16,-19.7 -3.43,-6.06 -8.1,-10.89 -14.01,-14.48 -5.91,-3.59 -12.42,-5.39 -19.54,-5.39 -8.44,0 -15.57,3.44 -21.38,10.32 v -30.47 c 0,-2.38 1.3,-3.89 3.89,-4.55 2.59,-0.66 5.83,-0.98 9.7,-0.98 v -6.1 z m 26.25,50.63 c 2.06,-4.13 4.91,-7.54 8.53,-10.23 3.63,-2.68 7.59,-4.02 11.9,-4.02 4,0 7.55,1.07 10.65,3.23 3.09,2.16 5.68,5.05 7.78,8.67 2.09,3.62 3.62,7.44 4.59,11.44 0.97,4 1.45,7.87 1.45,11.63 0,4.62 -0.83,9.64 -2.48,15.04 -1.66,5.4 -4.2,9.97 -7.64,13.69 -3.44,3.71 -7.59,5.57 -12.47,5.57 -4.69,0 -9,-1.2 -12.93,-3.61 -3.94,-2.4 -7.07,-5.67 -9.38,-9.79 v -41.62"
         style="fill:#000000;fill-opacity:1;fill-rule:nonzero;stroke:none"
         id="path180"
         inkscape:connector-curvature="0" /><path
         d="m 1243.4194,2445.2673 v 4.68 c 0,0.25 0.13,0.57 0.38,0.95 l 27,29.9 c 4.12,4.44 7.45,8.15 9.98,11.15 2.53,3 5.05,6.46 7.55,10.36 2.5,3.91 4.47,7.88 5.9,11.91 1.44,4.03 2.16,8.33 2.16,12.9 0,4.74 -0.87,9.29 -2.62,13.63 -1.75,4.35 -4.38,7.81 -7.88,10.41 -3.5,2.6 -7.68,3.89 -12.56,3.89 -5.06,0 -9.61,-1.52 -13.64,-4.55 -4.03,-3.03 -6.86,-6.95 -8.49,-11.76 0.44,0.12 1.07,0.18 1.88,0.18 2.63,0 4.84,-0.87 6.65,-2.62 1.82,-1.75 2.72,-4.03 2.72,-6.85 0,-2.62 -0.9,-4.85 -2.72,-6.7 -1.81,-1.84 -4.02,-2.76 -6.65,-2.76 -2.75,0 -5.05,0.93 -6.89,2.81 -1.85,1.88 -2.77,4.09 -2.77,6.65 0,4.38 0.83,8.47 2.49,12.29 1.65,3.81 4.03,7.2 7.12,10.17 3.09,2.97 6.58,5.25 10.45,6.84 3.88,1.6 8.01,2.4 12.38,2.4 6.63,0 12.8,-1.41 18.52,-4.23 5.72,-2.81 10.24,-6.78 13.59,-11.9 3.34,-5.13 5.01,-11.09 5.01,-17.9 0,-5.07 -1.1,-9.87 -3.32,-14.4 -2.22,-4.53 -5.05,-8.66 -8.49,-12.37 -3.44,-3.72 -7.86,-7.93 -13.26,-12.61 -5.41,-4.69 -8.95,-7.82 -10.64,-9.37 l -19.69,-19.04 h 16.69 c 8.25,0 15.14,0.08 20.67,0.23 5.53,0.16 8.45,0.39 8.76,0.71 1.38,1.43 2.76,6.78 4.13,16.03 h 5.15 l -4.96,-31.03 h -64.6"
         style="fill:#000000;fill-opacity:1;fill-rule:nonzero;stroke:none"
         id="path182"
         inkscape:connector-curvature="0" /><path
         d="m 528.63943,2486.7373 h 299.68"
         style="fill:none;stroke:#2797eb;stroke-width:19.99799919;stroke-linecap:butt;stroke-linejoin:round;stroke-miterlimit:10;stroke-dasharray:none;stroke-opacity:1"
         id="path184"
         inkscape:connector-curvature="0" /><path
         d="m 860.54943,2231.5873 v 40.59 c 0,0.87 0.53,1.31 1.59,1.31 h 2.06 c 0.38,0 0.7,-0.14 0.99,-0.42 0.28,-0.28 0.42,-0.58 0.42,-0.89 0,-11.37 3.52,-20.2 10.55,-26.49 7.03,-6.28 16.26,-9.41 27.7,-9.41 4.06,0 7.79,1.17 11.2,3.51 3.41,2.34 6.05,5.39 7.92,9.14 1.88,3.75 2.82,7.66 2.82,11.72 0,3.5 -0.7,6.91 -2.11,10.22 -1.41,3.31 -3.44,6.19 -6.09,8.62 -2.66,2.44 -5.68,4.07 -9.05,4.88 l -22.6,5.44 c -7.43,2 -13.53,6.07 -18.27,12.23 -4.76,6.16 -7.13,13.05 -7.13,20.67 0,6 1.53,11.64 4.59,16.92 3.07,5.29 7.19,9.46 12.38,12.52 5.19,3.06 10.78,4.59 16.78,4.59 11.62,0 20.84,-3.94 27.65,-11.81 l 7.23,11.25 c 0.31,0.37 0.68,0.56 1.12,0.56 h 1.22 c 0.31,0 0.62,-0.14 0.93,-0.42 0.32,-0.28 0.48,-0.64 0.48,-1.08 v -40.31 c 0,-1.06 -0.47,-1.59 -1.41,-1.59 h -2.07 c -1.06,0 -1.59,0.53 -1.59,1.59 0,2.94 -0.5,6.16 -1.5,9.66 -1,3.5 -2.37,6.87 -4.13,10.12 -1.74,3.25 -3.65,5.88 -5.71,7.88 -5.56,5.69 -12.97,8.53 -22.22,8.53 -3.94,0 -7.58,-1.02 -10.92,-3.05 -3.35,-2.03 -6.02,-4.76 -8.02,-8.2 -2,-3.44 -3,-7.07 -3,-10.88 0,-5 1.55,-9.52 4.64,-13.55 3.1,-4.02 7.14,-6.7 12.14,-8.01 l 22.59,-5.53 c 3.76,-0.87 7.29,-2.5 10.6,-4.87 3.31,-2.38 6.06,-5.12 8.25,-8.21 2.19,-3.1 3.91,-6.56 5.15,-10.4 1.26,-3.85 1.88,-7.8 1.88,-11.86 0,-6.26 -1.44,-12.18 -4.31,-17.77 -2.88,-5.59 -6.94,-10.09 -12.19,-13.5 -5.25,-3.41 -11,-5.11 -17.25,-5.11 -3.81,0 -7.73,0.42 -11.76,1.26 -4.04,0.85 -7.75,2.16 -11.16,3.94 -3.41,1.79 -6.48,4.05 -9.24,6.8 l -7.31,-11.44 c -0.31,-0.37 -0.75,-0.56 -1.31,-0.56 h -0.94 c -1.06,0 -1.59,0.47 -1.59,1.41"
         style="fill:#000000;fill-opacity:1;fill-rule:nonzero;stroke:none"
         id="path186"
         inkscape:connector-curvature="0" /><path
         d="m 964.51943,2254.9273 v 48 h -14.44 v 4.5 c 7.63,0 13.22,3.54 16.78,10.64 3.56,7.09 5.34,14.77 5.34,23.02 h 4.98 v -32.06 h 24.54997 v -6.1 h -24.54997 v -47.62 c 0,-4.82 0.81,-9.03 2.43,-12.66 1.63,-3.62 4.53,-5.44 8.72,-5.44 4,0 6.88,1.91 8.62,5.72 1.76,3.81 2.63,7.94 2.63,12.38 v 10.22 h 4.96997 v -10.6 c 0,-3.63 -0.66,-7.21 -1.97,-10.74 -1.31,-3.52 -3.27997,-6.43 -5.89997,-8.72 -2.63,-2.27 -5.82,-3.41 -9.57,-3.41 -6.94,0 -12.44,2.07 -16.5,6.23 -4.06,4.16 -6.09,9.7 -6.09,16.64"
         style="fill:#000000;fill-opacity:1;fill-rule:nonzero;stroke:none"
         id="path188"
         inkscape:connector-curvature="0" /><path
         d="m 1057.3094,2232.0573 c -7.06,0 -13.55,1.86 -19.45,5.57 -5.91,3.72 -10.55,8.67 -13.92,14.86 -3.38,6.19 -5.06,12.75 -5.06,19.69 0,6.81 1.52,13.27 4.59,19.36 3.06,6.09 7.36,11.03 12.89,14.81 5.53,3.78 11.7,5.68 18.52,5.68 5.31,0 9.93,-0.9 13.87,-2.68 3.94,-1.78 7.19,-4.26 9.75,-7.45 2.56,-3.19 4.48,-6.92 5.76,-11.21 1.29,-4.28 1.93,-9.01 1.93,-14.2 0,-1.5 -0.6,-2.25 -1.79,-2.25 h -50.34 v -1.87 c 0,-9.63 1.94,-17.9 5.82,-24.8 3.87,-6.91 10.21,-10.36 19.02,-10.36 3.57,0 6.86,0.78 9.9,2.35 3.03,1.56 5.65,3.76 7.87,6.61 2.22,2.84 3.73,5.88 4.55,9.14 0.12,0.37 0.34,0.72 0.66,1.03 0.31,0.31 0.65,0.47 1.02,0.47 h 1.5 c 1.19,0 1.79,-0.75 1.79,-2.25 -1.63,-6.57 -5.16,-11.96 -10.59,-16.18 -5.45,-4.21 -11.54,-6.32 -18.29,-6.32 z m -23.06,46.5 h 39.65 c 0,4.37 -0.6,8.79 -1.82,13.26 -1.22,4.47 -3.25,8.19 -6.1,11.15 -2.84,2.97 -6.54,4.46 -11.1,4.46 -6.57,0 -11.65,-3.08 -15.24,-9.24 -3.59,-6.15 -5.39,-12.7 -5.39,-19.63"
         style="fill:#000000;fill-opacity:1;fill-rule:nonzero;stroke:none"
         id="path190"
         inkscape:connector-curvature="0" /><path
         d="m 1095.2994,2200.2773 v 6.09 c 3.93,0 7.18,0.33 9.75,0.98 2.56,0.66 3.84,2.18 3.84,4.55 v 83.91 c 0,3.18 -1.12,5.17 -3.37,5.95 -2.25,0.78 -5.66,1.17 -10.22,1.17 v 6.1 l 25.78,1.87 v -10.78 c 3.13,3.5 6.8,6.17 11.02,8.01 4.21,1.85 8.73,2.77 13.54,2.77 6.82,0 12.97,-1.86 18.47,-5.58 5.5,-3.72 9.8,-8.6 12.89,-14.63 3.1,-6.02 4.64,-12.38 4.64,-19.07 0,-7.06 -1.72,-13.63 -5.16,-19.69 -3.43,-6.06 -8.1,-10.89 -14.01,-14.49 -5.91,-3.59 -12.42,-5.38 -19.54,-5.38 -8.44,0 -15.57,3.43 -21.38,10.31 v -30.47 c 0,-2.37 1.3,-3.89 3.89,-4.55 2.59,-0.65 5.83,-0.98 9.7,-0.98 v -6.09 z m 26.25,50.62 c 2.06,-4.12 4.91,-7.53 8.53,-10.22 3.63,-2.69 7.59,-4.03 11.9,-4.03 4,0 7.55,1.08 10.65,3.23 3.09,2.16 5.68,5.05 7.78,8.68 2.09,3.62 3.62,7.43 4.59,11.43 0.97,4 1.45,7.88 1.45,11.63 0,4.62 -0.83,9.64 -2.48,15.05 -1.66,5.4 -4.2,9.96 -7.64,13.68 -3.44,3.72 -7.59,5.58 -12.47,5.58 -4.69,0 -9,-1.21 -12.93,-3.61 -3.94,-2.41 -7.07,-5.67 -9.38,-9.79 v -41.63"
         style="fill:#000000;fill-opacity:1;fill-rule:nonzero;stroke:none"
         id="path192"
         inkscape:connector-curvature="0" /><path
         d="m 1278.2994,2230.1773 c -7.19,0 -13.19,1.92 -18,5.76 -4.81,3.85 -8.53,8.8 -11.16,14.87 -2.62,6.06 -4.45,12.43 -5.48,19.12 -1.03,6.69 -1.55,13.47 -1.55,20.35 0,9.18 1.78,18.39 5.34,27.6 3.57,9.22 8.82,16.86 15.75,22.93 6.94,6.06 15.16,9.09 24.66,9.09 4,0 7.72,-0.75 11.16,-2.25 3.43,-1.5 6.12,-3.7 8.06,-6.61 1.94,-2.91 2.9,-6.42 2.9,-10.55 0,-2.37 -0.81,-4.37 -2.43,-6 -1.63,-1.62 -3.63,-2.43 -6,-2.43 -2.25,0 -4.19,0.81 -5.82,2.43 -1.62,1.63 -2.43,3.63 -2.43,6 0,2.25 0.81,4.19 2.43,5.82 1.63,1.62 3.57,2.43 5.82,2.43 h 0.93 c -1.43,2.13 -3.49,3.69 -6.18,4.69 -2.69,1 -5.5,1.5 -8.44,1.5 -3.5,0 -6.73,-0.77 -9.7,-2.3 -2.97,-1.53 -5.64,-3.6 -8.02,-6.23 -2.37,-2.62 -4.36,-5.5 -5.95,-8.62 -1.59,-3.13 -2.83,-6.71 -3.71,-10.74 -0.87,-4.03 -1.42,-7.8 -1.63,-11.3 -0.22,-3.5 -0.33,-7.9 -0.33,-13.21 2,4.75 4.87,8.64 8.62,11.66 3.75,3.03 7.97,4.55 12.66,4.55 5.19,0 9.91,-1.04 14.15,-3.14 4.26,-2.09 7.91,-5 10.97,-8.72 3.06,-3.71 5.39,-7.95 6.99,-12.7 1.59,-4.75 2.39,-9.56 2.39,-14.44 0,-6.81 -1.52,-13.29 -4.55,-19.45 -3.03,-6.16 -7.3,-11.05 -12.8,-14.67 -5.5,-3.63 -11.72,-5.44 -18.65,-5.44 z m 0,5.53 c 4.5,0 8.11,1.01 10.83,3.05 2.72,2.03 4.7,4.73 5.95,8.11 1.25,3.37 2.03,6.78 2.34,10.22 0.32,3.44 0.47,7.65 0.47,12.65 0,6.57 -0.31,12.16 -0.94,16.79 -0.62,4.62 -2.31,8.71 -5.06,12.28 -2.75,3.56 -7,5.34 -12.75,5.34 -4.68,0 -8.54,-1.59 -11.58,-4.78 -3.03,-3.19 -5.25,-7.2 -6.65,-12.05 -1.41,-4.84 -2.11,-9.48 -2.11,-13.92 0,-1.56 0.06,-2.75 0.18,-3.56 0,-0.13 -0.01,-0.25 -0.04,-0.38 -0.03,-0.12 -0.08,-0.28 -0.14,-0.47 0,-4.93 0.51,-9.95 1.55,-15.05 1.03,-5.09 3,-9.4 5.9,-12.93 2.91,-3.54 6.92,-5.3 12.05,-5.3"
         style="fill:#000000;fill-opacity:1;fill-rule:nonzero;stroke:none"
         id="path194"
         inkscape:connector-curvature="0" /><path
         d="m 528.63943,2275.4973 h 299.68"
         style="fill:none;stroke:#81cc59;stroke-width:19.99799919;stroke-linecap:butt;stroke-linejoin:round;stroke-miterlimit:10;stroke-dasharray:none;stroke-opacity:1"
         id="path196"
         inkscape:connector-curvature="0" /><path
         d="m 498.66943,2156.7373 h 851.99997 v 660 H 498.66943 Z"
         style="fill:none;stroke:#262626;stroke-width:4.99800014;stroke-linecap:butt;stroke-linejoin:miter;stroke-miterlimit:10;stroke-dasharray:none;stroke-opacity:1"
         id="path198"
         inkscape:connector-curvature="0" /></g></g></svg>